<?xml version="1.0" encoding="UTF-8"?>
<!DOCTYPE svg PUBLIC "-//W3C//DTD SVG 1.1//EN" "http://www.w3.org/Graphics/SVG/1.1/DTD/svg11.dtd">
<!-- Creator: CorelDRAW 2017 -->
<svg xmlns="http://www.w3.org/2000/svg" xml:space="preserve" width="614.6mm" height="198.33mm" version="1.1" style="shape-rendering:geometricPrecision; text-rendering:geometricPrecision; image-rendering:optimizeQuality; fill-rule:evenodd; clip-rule:evenodd"
viewBox="0 0 61460 19833"
 xmlns:xlink="http://www.w3.org/1999/xlink">
 <defs>
  <style type="text/css">
   <![CDATA[
    .fil1 {fill:none}
    .fil0 {fill:#4CFFE8;fill-rule:nonzero}
   ]]>
  </style>
 </defs>
 <g id="Layer_x0020_1">
  <metadata id="CorelCorpID_0Corel-Layer"/>
  <g id="_2601308499040">
   <g>
    <path class="fil0" d="M14409 15552c-21,-9 -41,-19 -62,-28 0,0 -12,-21 10,-25 18,-3 10,7 22,-4 37,-27 14,-44 -3,-76 -26,-4 -53,-9 -79,-13 20,-6 40,-12 59,-19 25,8 50,16 75,24 10,12 20,24 29,36 16,0 39,-25 35,-37 -7,-10 -14,-19 -21,-29 -16,-5 -31,-9 -47,-14 18,-9 36,-19 54,-29 11,-28 21,-55 32,-83 -25,0 -50,0 -75,0 0,0 11,-29 25,-36 16,-8 44,-89 41,-107 -1,-7 -2,-15 -3,-22 32,22 4,-56 3,-61 -14,-41 -126,-334 -120,-350 9,-25 45,-82 68,-94 24,-13 78,-118 75,-144 -1,-8 -1,-16 -2,-24 47,-197 91,-429 145,-619 9,-26 19,-47 18,-75 -3,-20 -7,-40 -10,-60 -12,-16 -23,-33 -35,-49 10,-9 20,-17 30,-26 27,14 53,28 80,42 19,4 15,-15 9,-26 -8,-8 -15,-16 -23,-24 15,6 31,11 46,16 25,4 77,30 54,-7 -24,-39 -70,-30 -113,-33 -22,-15 -45,-31 -67,-46 1,-15 3,-30 4,-45 -16,-26 -11,-56 -3,-84 6,-18 12,-35 18,-53 -8,-18 -16,-37 -24,-55 9,-14 17,-29 26,-43 15,-3 49,-20 49,-20 0,0 -53,-30 -49,-43 4,-13 -20,-34 -15,-51 5,-15 -36,-35 -46,-51 -11,-19 -20,-34 -37,-47 -24,-19 -141,-58 -175,-69 -16,-5 -31,-10 -47,-14 -401,-126 -868,-260 -1255,-405 -43,-18 -85,-38 -127,-57 -133,-57 -300,-108 -439,-154 -86,-29 -166,-59 -253,-84 -84,-24 -254,-82 -254,-82 0,0 -48,-9 -46,-17 2,-8 -35,-25 -45,-20 -12,5 14,23 14,22 -15,6 -25,5 -40,1 -10,-3 -18,-6 -29,-8 -2,-1 -20,-8 -21,-5 -2,8 22,15 26,17 31,12 34,16 -3,10 -13,-2 -26,-4 -38,-6 4,1 -40,-11 -12,2 22,10 64,31 64,31 0,0 -25,8 -6,20 17,12 -32,-4 -41,-5 -30,-3 -14,3 -4,13 13,11 16,20 33,30 17,12 25,47 25,47 -1,27 -25,10 15,51 15,16 58,40 1,29 -9,-1 -54,-11 -47,12 -4,13 -9,26 -13,39 -5,13 80,17 88,18 -6,19 -7,28 -32,28 -20,0 -11,32 -11,32 -6,8 -11,15 -17,23 0,0 31,24 39,38 7,13 18,39 18,39 0,-1 57,322 38,329 -4,2 -8,4 -11,6 -7,37 -14,75 -21,112 -1,32 -2,64 -3,96 -7,59 -22,119 -34,177 -13,-11 -27,-22 -40,-33 3,31 15,100 4,128 -6,15 -20,54 -17,69 5,17 -38,47 -18,78 17,26 21,220 10,250 -61,226 -113,483 -166,714 -14,-18 -29,-36 -43,-54 0,0 -2,30 -7,43 -6,16 -26,45 -26,45 -1,11 -2,21 -3,32 1,-1 -17,45 -3,37 15,-7 43,-29 43,-29 0,0 -5,66 -15,94 -15,39 0,114 -15,153 0,2 35,88 25,156 -2,43 -35,140 -49,183 -23,68 -103,307 -71,381 -5,24 -10,49 -15,73 -16,14 -32,28 -47,42 -22,22 -44,45 -66,67 12,14 24,29 36,43 0,0 -3,33 -8,48 -5,13 -19,27 -15,41 12,45 18,161 18,157 -15,2 -30,3 -45,5 0,-6 2,81 -5,102 -5,14 9,121 12,145 5,46 -15,261 -4,282 3,6 -35,50 -40,67 -2,6 -3,15 -2,21 14,56 7,51 -4,105 0,0 102,44 104,60 9,64 3,145 29,204 15,35 7,128 27,156 16,24 58,167 57,195 1,57 -119,180 -46,276 68,93 -22,20 -14,27 -1,10 -2,20 -3,30 -20,25 -38,51 -54,79 -27,15 -54,32 -79,51 0,0 -5,65 32,44 24,-15 41,-39 47,-66 1052,-27 1653,-2 2703,235 -36,9 -57,4 -3,15 5,1 76,20 78,12 1,-5 -18,-7 -15,-17 5,-18 9,-33 30,-39 15,-4 -66,-77 -69,-114 -9,-91 -75,-162 -38,-275 2,-5 15,-57 15,-57 3,-26 2,-60 -7,-86 31,25 65,50 97,74 11,-30 5,-67 -8,-94 -10,-20 -22,-45 -19,-68 21,-2 44,-5 65,-7 26,-83 37,-175 -16,-249 -27,-30 -53,-52 -74,-85 -27,-43 39,-51 39,-51 0,0 2,-63 12,-89 9,-24 -18,-68 -18,-68 -3,-50 -6,-99 -9,-149 0,0 33,-33 39,-49 35,-96 71,-191 107,-287 13,-49 -5,-101 -29,-144 4,-11 8,-23 12,-34 -6,-58 -12,-116 -18,-174 0,0 -1,-6 -2,-9 -11,-20 -8,-81 35,-76 59,7 39,9 75,-29 17,-18 54,-87 54,-87 -30,-49 -60,-99 -89,-149 -13,-28 11,-89 22,-116z"/>
   </g>
   <path class="fil1" d="M12107 17831c-38,-500 1493,-4092 1796,-5165"/>
   <g>
    <path class="fil0" d="M19043 9115c-22,-7 -44,-14 -66,-21 -7,-28 -5,-54 11,-78 22,-29 9,12 23,-30 36,-100 20,-111 -2,-206 -28,12 -56,23 -84,35 21,-35 42,-70 64,-105 27,-1 53,-1 80,-2 10,24 21,49 31,74 20,-16 41,-107 37,-132 -7,-20 -15,-40 -22,-60 -17,1 -33,3 -50,4 19,-43 39,-86 58,-129 11,-86 23,-173 34,-259 -27,23 -53,46 -80,69 0,0 11,-87 27,-123 19,-41 47,-285 44,-335 -1,-19 -2,-38 -3,-57 31,29 11,-114 4,-172 -22,-159 -137,-761 -122,-872 12,-86 42,-255 75,-331 30,-68 89,-406 87,-484 0,-23 -1,-46 -1,-69 65,-652 132,-1338 228,-1984 14,-84 30,-165 35,-250 1,-60 1,-120 2,-180 -9,-41 -18,-81 -27,-122 13,-36 26,-73 40,-109 27,19 54,38 80,58 23,-7 20,-72 17,-92 -7,-18 -13,-37 -20,-56 16,3 32,6 48,9 55,-21 78,14 64,-72 -16,-96 -51,-42 -119,-2 -21,-28 -43,-57 -64,-85 6,-51 12,-101 19,-151 -11,-77 11,-199 25,-273 13,-65 27,-129 41,-194 -2,-54 -4,-109 -6,-163 16,-57 32,-113 49,-170 27,-32 67,-112 67,-112 -23,-30 -42,-68 -36,-106 12,-51 -5,-107 9,-166 9,-35 0,-33 -3,-61 0,-1 11,-56 4,-56 0,-26 -16,-57 -19,-90 -3,-49 -5,-113 -22,-159 -15,-39 -134,-89 -174,-96 -16,-3 -32,-6 -48,-9 118,21 -1174,-223 -1282,-327 -48,-46 -76,-87 -118,-131 -41,-43 -361,-200 -431,-232 -103,-48 -125,-110 -249,-122 -95,-14 -175,-59 -248,-120 3,-4 -59,45 -44,-44 7,-40 -2,-211 -33,-93 -17,67 -22,128 -16,196 0,0 -30,116 -58,111 -22,-4 -12,-11 -29,-5 -23,8 -18,-23 -23,8 -6,33 -9,54 16,80 33,35 22,58 -15,85 -15,12 -31,25 -46,37 -27,4 -30,19 -18,42 19,31 54,97 54,97 0,0 -37,109 -27,150 11,44 -16,13 -49,46 -16,17 -22,25 -23,48 0,4 22,-102 26,-105 8,-27 6,-16 8,5 3,39 -2,88 12,125 15,52 -14,227 -12,219 -20,114 -40,111 -24,237 7,53 45,110 -20,141 -49,26 -63,65 -67,118 -14,65 -27,129 -41,194 -14,65 85,-27 99,-37 -11,51 -20,128 -56,167 -28,30 -31,151 -31,151 -11,39 -21,79 -32,118 0,0 28,75 29,107 2,45 4,136 4,136 -16,321 -13,885 -58,1169 -5,11 -9,22 -14,34 -16,135 -31,269 -46,404 -7,106 -13,212 -19,319 -17,201 -40,401 -60,601 -13,-21 -27,-42 -40,-63 0,123 10,274 -7,393 -9,65 -26,164 -24,227 6,71 -47,171 -24,252 23,81 13,625 0,728 -72,709 -124,1432 -185,2144 -15,-36 -30,-72 -46,-108 0,0 -2,81 -8,121 -7,48 -28,143 -28,143 -1,29 -2,59 -3,88 3,-18 -17,131 -3,100 18,-37 46,-115 46,-115 0,0 -5,177 -17,262 -18,134 2,283 -17,417 -17,340 28,436 -38,936 -22,159 -137,938 -109,1094 -5,44 -9,92 -16,136 0,2 0,15 1,18 -15,16 -29,35 -41,53 -24,41 -45,85 -66,129 13,21 25,43 36,65 0,0 -7,72 -14,107 -7,34 -25,73 -23,107 6,142 -22,428 -22,428 -18,19 -36,39 -54,58 0,0 -23,240 -49,356 -34,151 -42,382 -60,543 -54,408 -148,849 -188,1250 0,99 -107,306 -107,432 0,36 -16,278 -34,291 42,17 96,45 99,96 -8,179 -42,382 -29,558 8,121 -39,325 -20,431 17,102 14,420 1,526 -19,191 -178,513 -119,703 11,37 43,144 -18,55 -3,17 -6,35 -9,53 -21,39 -43,78 -63,118 -28,19 -57,38 -83,59 0,0 -10,84 28,60 28,-20 44,-49 52,-82 870,36 1890,118 2736,65 -16,-52 -40,-169 33,-185 77,-2 92,-60 104,-123 8,-43 -4,-79 7,-137 18,-88 38,-215 79,-293 20,-38 -17,-359 -6,-450 39,-331 13,-629 88,-969 43,-202 93,-460 108,-667 21,85 42,170 63,256 0,0 66,-337 71,-495 4,-105 10,-219 31,-323 30,-43 60,-86 90,-128 64,-284 172,-800 141,-1076 -17,-86 -39,-148 -48,-234 -5,-78 15,-154 67,-214 0,0 23,-192 44,-285 10,-45 -5,-169 -5,-169 5,-107 8,-214 6,-321 0,0 34,-72 40,-103 1,-5 9,-55 10,-55 4,0 132,-784 143,-855 18,-138 11,-265 -17,-400 6,-36 11,-72 16,-108 -2,-164 -4,-328 -7,-493 0,0 -25,-229 38,-263 75,-41 56,-60 81,-146 26,-89 59,-286 59,-286 -31,-109 -61,-219 -93,-328 -16,-72 14,-259 24,-338z"/>
   </g>
   <path class="fil1" d="M15803 18323c1,-524 1201,-5605 1321,-6287 589,-3326 915,-7545 1694,-10696l169 -954"/>
   <g>
    <path class="fil0" d="M19216 11922c23,-1 47,-3 70,-4 19,28 30,62 28,96 -6,43 -14,-9 -7,46 15,128 35,138 101,238 20,-26 40,-52 60,-77 -3,50 -5,100 -8,150 -24,12 -48,25 -71,37 -21,-24 -42,-48 -63,-72 -10,28 14,142 29,169 16,20 32,40 48,59 15,-9 29,-17 43,-26 3,58 6,116 9,174 30,104 61,208 91,312 13,-38 27,-76 40,-115 0,0 31,103 33,153 2,62 88,340 117,402 10,21 20,42 30,63 -42,-24 44,136 77,196 138,248 413,679 511,916 30,103 77,287 81,390 3,93 98,461 138,549 11,24 21,47 32,71 213,661 445,1333 643,1996 21,77 40,152 71,226 24,49 47,99 71,148 25,29 49,58 74,86 3,34 5,68 7,102 -32,-4 -64,-8 -96,-12 -18,15 10,63 21,78 13,12 27,23 40,35 -16,4 -32,8 -47,13 -39,36 -77,21 -29,80 52,66 65,8 109,-47 30,13 61,25 91,38 14,39 28,78 42,117 39,49 66,140 82,199 12,47 24,95 36,142 22,33 44,66 66,98 6,39 12,78 18,117 -11,25 -21,87 -21,87 0,0 65,15 72,43 7,30 42,50 51,85 8,34 50,30 74,57 18,20 37,43 62,54 25,11 158,-7 189,-13 16,-3 32,-7 48,-10 407,-79 850,-178 1258,-227 4,-3 40,15 46,21 70,64 108,121 168,183 64,66 380,161 477,171 94,10 93,10 179,-16 33,-11 51,-14 86,-12 219,9 211,-315 211,-315 126,259 -8,-175 -22,-212 -77,-171 -477,-743 -203,-441 174,222 388,648 358,938 0,-1 1,7 1,7 13,69 13,-7 38,-18 24,-1 14,11 30,-2 21,-17 23,26 20,-18 -3,-56 -8,-102 -40,-150 -50,-73 -42,-147 -29,-230 6,-46 11,-92 14,-138 11,-17 11,-29 11,-49 5,-6 -9,-12 -13,-13 -26,-9 -79,-32 -79,-32 0,0 8,-62 -18,-84 -23,-18 14,-14 33,-39 23,-31 6,-31 -11,-50 -19,-20 -30,-46 -55,-60 -29,-20 -69,-126 -69,-123 -26,-81 1,-71 -66,-144 -27,-30 -82,-48 -34,-92 30,-29 38,-62 17,-99 -12,-46 -23,-93 -35,-139 -12,-47 -67,50 -76,62 -10,-40 -30,-92 -12,-132 13,-28 -30,-114 -30,-114 -5,-32 -11,-63 -16,-95 0,0 -54,-42 -68,-65 -20,-32 -57,-97 -57,-97 51,108 -419,-877 -415,-963 0,-12 -1,-23 -1,-35 -42,-127 -84,-253 -126,-380 -39,-101 -78,-202 -116,-304 -71,-201 -136,-404 -202,-606 21,15 43,30 64,46 -54,-124 -127,-269 -164,-397 -20,-72 -47,-177 -78,-243 -38,-74 -32,-196 -90,-273 -67,-89 -290,-653 -327,-781 -270,-844 -559,-1690 -839,-2531 31,36 62,71 93,107 0,0 -37,-97 -51,-147 -17,-59 -44,-182 -44,-181 -13,-35 -27,-71 -40,-106l-46 -121c2,52 15,157 15,157 0,0 -82,-212 -113,-320 -50,-170 -140,-337 -190,-507 -151,-407 -273,-613 -435,-1144 -78,-258 -330,-1134 -467,-1366 -29,-87 -58,-173 -87,-260 -9,-68 -19,-137 -28,-205 -17,-104 -33,-207 -50,-311 -25,-28 -50,-55 -75,-83 0,0 -40,-108 -55,-163 -13,-47 -21,-107 -43,-150 -75,-147 -203,-455 -203,-455 7,-26 13,-52 20,-78 0,0 -89,-206 -120,-312 -32,-113 -124,-289 -175,-404 -95,-232 -200,-563 -306,-774 -21,-29 -20,-199 -55,-246 -49,-65 -43,-70 -69,-144 0,0 -107,20 -123,-7 -48,-75 -95,-186 -157,-246 -36,-37 -82,-154 -118,-178 -29,-21 -143,-165 -157,-198 -29,-61 21,-233 -67,-269 -86,-36 25,-14 8,-18 -1,-4 -2,-9 -2,-13 13,-11 29,-19 47,-21 26,-2 53,-2 79,1 7,19 -18,18 -29,17 -3,-1 -50,-16 -50,-15 -986,68 -1736,198 -2661,586 0,0 102,114 28,141 -58,21 -70,49 -58,105 6,26 27,33 37,75 11,48 32,124 21,172 -7,28 127,152 153,209 77,174 195,279 250,487 26,99 141,377 141,377 -50,-36 -100,-73 -151,-108 0,0 70,211 119,289 32,51 79,135 95,194 -11,37 -21,75 -31,112 0,0 157,604 324,791 57,64 102,102 150,170 45,72 57,143 45,226 0,0 79,210 110,317 18,62 100,200 100,200 68,163 135,326 202,489 0,0 25,155 45,225 111,384 222,767 333,1151 52,164 121,308 214,452 13,44 26,88 39,132 83,190 166,380 248,570 0,0 137,251 95,325 -49,84 -19,107 -2,207 20,118 85,360 85,360 81,114 161,228 242,342 54,85 110,302 140,405z"/>
   </g>
   <path class="fil1" d="M18239 2950c14,819 4046,13915 4551,16347 68,327 -17,381 133,537"/>
   <g>
    <path class="fil0" d="M22265 17245c0,-23 -1,-46 -1,-69 15,-12 27,-16 45,-5 20,15 -5,12 21,17 63,16 68,-6 111,-43 -12,-25 -23,-50 -35,-75 23,14 46,27 69,41 5,26 11,52 16,77 -11,15 -22,30 -34,45 12,15 65,19 78,10 9,-11 19,-22 28,-33 -4,-16 -8,-32 -12,-48 27,11 54,21 81,31 48,-6 97,-11 146,-17 -18,-22 -35,-43 -52,-65 0,0 51,-6 71,2 23,10 163,-10 188,-21 10,-5 20,-9 30,-14 -11,40 90,-28 93,-30 58,-38 411,-283 443,-286 43,-4 152,-4 190,10 36,14 235,7 273,-8 12,-5 24,-10 36,-14 353,-61 747,-132 1101,-170 49,-3 94,-4 141,-18 33,-12 65,-24 98,-36 21,-18 41,-35 62,-53 22,5 44,10 66,16 -6,30 -13,60 -19,91 7,20 41,5 53,-3 9,-10 18,-21 28,-31 1,16 2,33 2,49 16,39 3,80 50,47 52,-37 10,-67 -18,-117 12,-27 25,-54 37,-81 29,-5 58,-10 86,-15 42,-28 107,-33 156,-36 38,-1 76,-3 115,-4 30,-14 60,-29 91,-43 34,3 69,5 103,8 20,16 74,39 74,39 0,0 27,-60 55,-61 30,-1 58,-31 96,-31 37,0 44,-43 78,-61 27,-13 58,-27 78,-49 19,-23 33,-155 33,-188 0,-16 0,-33 0,-49 4,-317 -2,-1049 53,-1319 19,-51 41,-91 61,-138 33,-78 75,-367 90,-464 17,-104 51,-154 47,-266 -1,-86 16,-183 47,-264 2,2 -32,-51 21,-50 39,1 117,-38 52,-48 -40,-6 -80,0 -117,18 0,0 -70,-12 -70,-39 0,-17 5,-15 0,-30 -6,-20 11,-21 -7,-21 -26,0 -35,5 -46,30 -17,37 -31,33 -51,0 -9,-13 -17,-26 -26,-38 0,0 -6,-41 -26,-11 -16,24 -51,70 -51,70 0,0 -63,-21 -91,0 -24,19 -11,-16 -33,-40 -26,-29 -29,-12 -53,1 -24,14 -51,20 -70,41 -24,24 -133,41 -130,41 -78,8 -64,-17 -142,33 -31,20 -57,69 -85,13 -17,-31 -43,-52 -79,-38 -39,1 -78,3 -118,4 -40,2 29,77 37,88 -35,1 -77,9 -105,-17 -20,-19 -91,4 -91,4 -24,-2 -48,-4 -72,-5 0,0 -37,42 -57,52 -25,12 -76,34 -76,34 55,-17 -645,199 -666,189 -7,-2 -14,-5 -21,-7 -78,12 -155,24 -232,37 -60,15 -120,30 -180,45 -113,23 -228,41 -342,60 9,-17 19,-34 28,-52 -61,22 -156,64 -218,69 -32,3 -102,9 -129,21 -30,16 -105,-10 -143,25 -31,29 -348,135 -400,140 -402,69 -821,157 -1221,241 17,-22 34,-44 51,-66 0,0 -46,14 -69,17 -28,3 -86,2 -85,2 -17,5 -33,10 -50,15 8,0 -79,9 -57,18 23,10 74,21 74,21 0,0 -101,32 -151,38 -76,9 -164,61 -240,70 -161,45 -131,103 -546,165 -107,16 -581,83 -671,149 -44,9 -88,18 -132,27 -35,-6 -70,-12 -104,-18 -54,-7 -107,-14 -161,-20 -15,18 -30,36 -45,55 0,0 -58,15 -87,18 -24,3 -59,-2 -80,9 -80,41 -254,99 -254,99 -14,-12 -28,-24 -42,-36 6,-2 -129,44 -181,49 -47,5 -192,66 -246,85 -99,35 -470,106 -520,139 -17,11 -146,-18 -181,5 -55,35 -55,28 -117,39 0,0 2,109 -21,119 -70,35 -165,59 -226,107 -40,30 -156,53 -185,83 -32,31 -201,112 -246,122 -111,27 -310,-61 -447,32 -124,82 -44,-11 -46,-9 -16,1 -31,1 -46,2 -38,-15 -77,-30 -115,-45 -20,-26 -39,-51 -59,-77 0,0 -61,-7 -44,31 14,26 40,43 69,47 52,924 177,1820 445,2708 0,0 150,-85 167,-7 14,65 48,77 107,73 30,-2 44,-21 90,-24 51,-3 135,-11 182,9 29,12 166,-97 226,-113 152,-39 268,-139 444,-153 102,-10 197,-28 293,-63 -31,42 -61,84 -92,125 0,0 163,-28 216,-58 42,-23 92,-47 140,-54 23,18 47,36 70,53 0,0 401,-39 509,-150 41,-42 61,-76 107,-110 45,-30 86,-24 130,5 0,0 121,-32 180,-38 33,-4 112,-53 112,-53 88,-30 177,-60 265,-90 0,0 83,10 118,6 194,-23 388,-46 582,-69 82,-14 157,-52 221,-105 21,-3 44,-6 65,-9 91,-37 182,-75 273,-113 0,0 122,-73 154,-19 35,59 28,40 97,48 49,6 169,-1 169,-1 54,-52 107,-105 161,-157 33,-27 145,-39 189,-44z"/>
   </g>
   <path class="fil1" d="M16590 16316c3247,-75 7179,-934 10384,-874"/>
   <g>
    <path class="fil0" d="M26545 7609c-22,-5 -45,-9 -67,-14 0,0 -17,-24 4,-38 19,-13 10,6 21,-14 30,-49 8,-59 -18,-100 -27,4 -54,8 -81,12 18,-16 37,-32 55,-48 26,1 53,2 79,3 12,13 24,25 36,37 17,-6 33,-49 26,-62 -9,-10 -18,-20 -26,-30 -16,0 -33,0 -49,-1 16,-20 32,-39 48,-59 5,-41 9,-81 14,-122 -25,10 -49,19 -74,29 0,0 5,-42 17,-57 14,-17 24,-133 18,-156 -2,-9 -5,-18 -8,-27 37,18 -9,-77 -10,-80 -23,-50 -193,-387 -191,-409 4,-34 26,-121 47,-146 21,-25 52,-181 44,-213 -2,-10 -5,-21 -7,-31 5,-276 1,-585 18,-857 4,-36 10,-69 3,-106 -7,-26 -14,-51 -21,-77 -14,-18 -29,-35 -43,-53 8,-15 16,-30 24,-45 29,9 58,18 87,27 20,-2 11,-27 4,-38 -9,-8 -18,-16 -27,-24 16,2 33,4 49,5 33,-5 80,11 52,-29 -30,-43 -70,-16 -117,-5 -25,-13 -50,-25 -75,-38 -1,-21 -2,-42 -4,-63 -21,-33 -20,-76 -17,-114 3,-27 6,-53 9,-80 -11,-23 -22,-45 -33,-68 6,-23 12,-46 18,-69 16,-10 46,-45 46,-45 0,0 -57,-26 -55,-45 2,-20 -25,-42 -22,-68 3,-25 -40,-35 -54,-59 -12,-21 -23,-42 -43,-57 -22,-16 -152,-39 -184,-43 -16,-2 -33,-4 -49,-5 -375,-44 -959,-98 -1307,-179 -47,-16 -89,-35 -134,-51 -111,-41 -333,-77 -456,-101 -94,-19 -163,-46 -262,-54 -79,-7 -262,-54 -262,-54 0,0 -51,12 -47,-16 3,-27 -34,-63 -46,-33 -9,23 -2,45 12,64 -6,18 -22,35 -42,35 -13,-2 -17,-4 -30,-3 -14,1 -21,-8 -22,2 -2,18 11,22 27,28 34,12 33,20 -3,28 -13,4 -27,7 -40,10 4,0 -42,-2 -12,13 22,11 67,37 67,37 0,0 -25,33 -6,51 17,16 -22,6 -42,14 -31,12 -14,15 -3,30 13,17 16,32 36,45 18,15 29,81 29,81 2,52 -23,34 20,88 17,22 63,43 5,53 -22,4 -55,13 -46,42 -3,24 -5,48 -8,73 -3,25 81,-8 91,-11 -3,26 -1,49 -29,62 -20,10 -6,57 -6,57 -5,15 -9,30 -14,45 0,0 35,25 45,43 9,18 24,53 24,53 -4,-14 115,447 95,467 -3,4 -7,9 -10,13 0,55 0,110 1,165 5,44 10,88 15,132 4,84 2,168 1,252 -15,-10 -31,-19 -46,-29 10,44 35,126 30,169 -3,23 -9,78 -3,97 9,22 -29,76 -2,109 23,29 66,283 61,325 -13,328 -10,672 -15,1002 -18,-18 -36,-37 -54,-55 0,0 4,40 2,59 -3,23 -17,70 -17,69 1,15 2,29 3,44 1,-4 -8,66 5,50 14,-17 37,-55 37,-55 0,0 9,89 4,131 -7,63 23,149 16,212 4,93 74,103 40,493 -9,98 -49,518 -5,611 -1,41 -2,81 -3,122 -14,29 -27,59 -41,88 -18,46 -37,92 -55,138 14,17 29,35 43,52 0,0 2,55 -1,81 -3,22 -15,52 -9,74 22,81 40,251 40,251 -15,10 -30,20 -45,30 0,-6 14,128 8,176 -5,42 23,193 30,246 13,98 5,464 26,517 7,18 -48,136 -33,174 23,58 16,60 15,120 0,0 107,20 113,44 21,75 25,171 60,239 22,44 22,161 46,196 24,37 73,218 74,263 6,115 -116,295 -47,448 60,138 -18,42 -17,44 -2,16 -4,31 -6,47 -21,36 -43,72 -64,108 -29,16 -57,32 -86,48 0,0 -17,61 24,49 31,-11 47,-32 58,-63 900,96 1843,109 2742,15 0,0 -60,-150 20,-152 63,-1 83,-26 90,-84 4,-28 -14,-41 -8,-85 6,-47 12,-124 40,-162 17,-24 -66,-165 -70,-224 -11,-144 -87,-265 -66,-427 9,-90 12,-184 -4,-274 34,36 70,71 104,107 0,0 4,-153 -13,-204 -13,-39 -28,-93 -24,-135 22,-17 44,-34 67,-51 0,0 45,-362 -40,-480 -32,-45 -60,-70 -84,-117 -19,-45 -5,-83 33,-113 0,0 -5,-112 1,-166 4,-29 -27,-110 -27,-110 -10,-83 -20,-166 -30,-250 0,0 28,-70 32,-100 21,-171 41,-343 62,-514 5,-77 -16,-145 -54,-211 2,-19 4,-38 6,-57 -16,-85 -33,-170 -49,-255 0,0 -44,-118 16,-133 64,-16 44,-11 68,-70 16,-38 36,-141 36,-141 -39,-56 -78,-112 -118,-168 -19,-33 -7,-127 -2,-165z"/>
   </g>
   <path class="fil1" d="M24469 12491c422,-3213 817,-6720 1031,-8637"/>
   <g>
    <path class="fil0" d="M30805 4381c5,-22 11,-45 16,-68 29,-9 59,-10 87,3 34,19 -12,11 36,21 111,26 122,10 223,-21 -16,-27 -31,-54 -47,-81 40,18 80,36 120,54 3,26 7,53 10,79 -25,13 -51,25 -76,38 20,18 120,31 146,25 21,-9 41,-18 62,-27 -3,-17 -6,-33 -9,-49 48,15 96,31 144,46 93,4 186,8 278,12 -27,-25 -54,-49 -81,-74 0,0 93,3 133,16 46,16 302,23 356,16 20,-3 39,-5 59,-8 -28,33 119,2 179,-11 158,-34 761,-199 873,-194 85,5 255,21 332,48 67,24 400,54 473,46 22,-2 44,-5 65,-7 584,11 1196,14 1777,49 69,6 136,14 205,10 48,-5 95,-11 143,-16 31,-13 63,-27 94,-40 29,9 57,18 86,28 -14,28 -27,57 -41,86 7,22 55,12 71,7 14,-9 28,-17 42,-26 -2,16 -3,33 -5,49 16,47 -8,79 57,55 73,-26 28,-60 -3,-118 21,-24 41,-49 62,-73 38,1 75,1 113,2 56,-20 141,-13 198,-7 46,5 91,11 136,17 37,-9 74,-18 111,-26 38,8 75,17 112,26 19,20 72,51 72,51 0,0 38,-55 67,-50 31,5 63,-20 101,-14 36,6 49,-35 85,-47 27,-9 59,-17 81,-36 21,-19 57,-147 63,-179 3,-16 6,-32 9,-48 60,-310 185,-1031 287,-1288 28,-47 56,-82 84,-125 47,-73 140,-344 174,-439 36,-98 80,-142 97,-252 18,-91 50,-171 99,-250 2,3 -22,-57 32,-45 38,8 125,-12 62,-36 -40,-15 -79,-17 -120,-7 0,0 -70,-25 -64,-52 3,-16 8,-14 6,-29 -3,-21 16,-19 -3,-22 -26,-5 -36,-3 -52,20 -24,33 -38,26 -53,-10 -7,-14 -13,-28 -20,-43 0,0 1,-41 -25,-16 -21,21 -66,60 -66,60 0,0 -63,-33 -96,-17 -29,14 -9,-18 -28,-46 -23,-33 -29,-17 -57,-9 -28,9 -59,10 -83,28 -32,20 -153,16 -150,16 -87,-6 -71,-27 -166,7 -39,14 -77,58 -100,-3 -16,-38 -44,-57 -86,-52 -47,-6 -95,-12 -142,-17 -48,-6 22,81 30,94 -40,-5 -95,-5 -125,-36 -21,-22 -113,-13 -113,-13 -30,-6 -60,-12 -90,-19 0,0 -55,36 -80,41 -35,7 -104,19 -104,19 110,-9 -900,85 -951,61 -10,-4 -20,-7 -29,-11 -117,-3 -234,-6 -351,-8 -95,3 -189,6 -283,9 -184,1 -368,-4 -552,-7 19,-15 37,-30 56,-46 -114,11 -256,33 -369,26 -62,-4 -160,-13 -218,-4 -68,12 -168,-33 -246,-4 -78,30 -620,65 -724,60 -766,-12 -1541,-4 -2308,-1 39,-18 77,-37 115,-55 0,0 -91,5 -137,3 -55,-2 -164,-15 -164,-15 -33,2 -67,3 -100,5 22,1 -151,-5 -115,6 44,14 136,35 136,35 0,0 -202,12 -301,8 -158,-6 -327,29 -485,24 -383,15 -602,71 -1121,61 -252,-5 -1140,-31 -1384,27 -91,1 -182,3 -273,4 -69,-12 -137,-24 -206,-36 -106,-16 -212,-31 -318,-47 -35,15 -70,31 -105,46 0,0 -120,6 -179,4 -52,-1 -114,-12 -165,-4 -176,28 -535,57 -535,57 -25,-14 -50,-28 -76,-42 0,0 -251,24 -375,21 -144,-3 -361,33 -512,48 -339,27 -729,24 -1057,65 -64,16 -263,-42 -354,-19 -29,7 -216,39 -232,25 -7,39 -18,101 -60,116 -142,27 -312,35 -448,80 -96,30 -279,26 -359,62 -82,35 -377,91 -469,96 -240,19 -541,-93 -796,-7 -34,11 -202,63 -80,-11 -26,-1 -52,-2 -78,-3 -64,-18 -128,-36 -192,-53 -32,-27 -64,-54 -95,-81 2,0 -103,-11 -76,28 27,34 70,45 112,52 63,1029 133,1744 510,2734 62,-18 230,-65 267,6 19,79 100,81 166,83 49,1 88,-17 149,-16 88,2 220,0 301,26 43,14 311,-82 398,-89 274,-23 510,-108 801,-102 150,3 543,-26 543,-26 -64,38 -129,75 -193,113 0,0 282,-3 404,-29 82,-17 182,-35 266,-34 40,21 80,42 120,62 0,0 714,37 988,-75 85,-35 142,-68 228,-93 90,-22 165,-12 248,25 0,0 238,-12 356,-10 67,2 230,-35 230,-35 179,-15 358,-31 537,-46 0,0 155,23 228,25 385,10 771,21 1156,33 154,1 316,-20 463,-65 42,1 85,3 127,4 188,-20 377,-41 565,-61 0,0 256,-51 305,10 57,72 80,50 176,66 104,17 327,31 327,31 118,-41 236,-83 354,-124 81,-24 284,-11 375,-7z"/>
   </g>
   <path class="fil1" d="M20274 2638c5259,126 15463,282 17943,859"/>
   <g>
    <path class="fil0" d="M9019 15160c-4,22 -8,45 -12,67 -16,9 -29,10 -43,-4 -16,-19 7,-10 -16,-21 -57,-28 -66,-7 -113,20 6,27 12,54 18,81 -19,-18 -38,-36 -57,-54 0,-26 0,-53 0,-79 13,-12 27,-25 41,-37 -8,-17 -57,-32 -72,-25 -11,9 -22,18 -33,27 1,16 1,33 2,49 -23,-16 -47,-31 -70,-47 -47,-4 -94,-8 -141,-13 12,25 24,49 37,74 0,0 -49,-5 -67,-17 -20,-14 -157,-23 -183,-17 -10,3 -21,5 -32,8 20,-37 -93,10 -95,10 -64,25 -453,193 -487,190 -42,-4 -150,-27 -183,-49 -33,-22 -231,-55 -271,-48 -13,2 -26,4 -39,7 -385,-17 -785,-24 -1167,-57 -53,-7 -102,-15 -155,-11 -38,5 -76,10 -113,16 -26,13 -52,26 -78,39 -23,-9 -46,-19 -69,-28 13,-28 25,-57 38,-85 -4,-22 -45,-13 -59,-8 -12,8 -24,17 -36,25 2,-16 4,-32 6,-49 -11,-44 11,-79 -46,-55 -64,26 -25,62 -2,118 -19,24 -37,48 -56,72 -33,-1 -66,-2 -99,-2 -49,19 -132,12 -182,6 -44,-6 -88,-12 -131,-18 -37,9 -75,17 -112,26 -40,-9 -79,-18 -119,-27 -21,-21 -80,-52 -80,-52 0,0 -42,54 -75,50 -36,-5 -75,20 -119,13 -45,-6 -59,35 -103,46 -33,8 -74,16 -102,35 -26,19 -62,146 -67,180 -2,16 -5,32 -7,49 20,-139 -158,1143 -253,1296 -30,48 -60,83 -89,127 -25,38 -106,280 -110,283 -8,6 94,97 99,124 14,8 1,40 -2,55 -21,104 -58,151 -56,264 -2,93 -22,177 -56,263 -3,-2 32,52 -24,50 -40,-2 -125,34 -56,47 42,7 82,3 122,-14 16,1 41,11 55,19 3,1 -169,-1 -170,7 -4,29 70,20 -4,30 -75,12 96,35 -48,15 0,0 12,2 17,2 27,4 38,1 54,-22 24,-35 39,-28 56,8 8,14 15,28 23,42 0,0 1,41 27,15 21,-21 66,-62 66,-62 0,0 65,31 98,14 29,-15 9,17 29,45 23,33 29,17 57,8 27,-9 57,-11 81,-29 31,-20 148,-18 145,-18 83,5 66,27 155,-8 36,-14 72,-59 91,2 14,37 36,57 77,52 41,6 82,11 123,17 41,6 -17,-81 -23,-94 36,5 82,5 106,36 17,22 95,13 95,13 25,6 49,12 74,18 0,0 46,-35 68,-40 28,-7 85,-19 85,-19 -60,6 691,-74 713,-58 7,4 13,7 20,11 80,3 160,6 240,10 63,-3 125,-5 188,-8 116,0 233,6 349,10 -13,15 -25,30 -38,45 64,-9 166,-31 227,-24 32,3 102,12 130,5 33,-9 100,32 144,5 36,-22 365,-61 417,-56 396,16 827,14 1224,11 -21,18 -42,36 -63,55 0,0 47,-5 70,-3 27,2 83,15 83,15 17,-2 34,-3 51,-5 -7,-1 78,7 58,-6 -21,-14 -67,-35 -67,-35 0,0 104,-11 153,-7 75,6 170,-27 245,-22 160,-13 149,-75 561,-58 112,5 582,26 687,-24 45,-1 91,-2 136,-3 34,12 67,24 101,36 53,16 105,31 158,47 18,-15 36,-31 55,-46 0,0 61,-5 91,-4 25,1 59,12 83,4 88,-27 275,-57 275,-57 12,14 25,28 37,42 -6,1 139,-23 195,-21 52,2 209,-36 271,-48 115,-22 509,-37 575,-67 21,-9 157,37 199,18 65,-29 65,-21 134,-25 0,0 19,-111 37,-116 83,-27 189,-40 264,-81 50,-27 179,-36 218,-64 42,-29 242,-94 294,-99 144,-19 354,88 529,2 39,-18 135,-62 56,11 18,0 37,2 55,2 46,17 92,35 138,52 23,27 46,54 69,80 -1,0 76,10 56,-29 -18,-31 -48,-44 -82,-50 -41,-985 -101,-1757 -343,-2729 -46,21 -152,65 -175,-4 -10,-67 -45,-80 -105,-82 -31,-1 -47,18 -94,17 -53,-1 -139,0 -185,-24 -28,-15 -177,82 -239,91 -157,24 -283,111 -460,105 -99,-2 -200,4 -297,27 35,-37 70,-76 106,-113 0,0 -163,8 -219,30 -41,16 -98,35 -143,35 -20,-21 -41,-41 -61,-62 0,0 -392,-16 -509,76 -45,36 -69,65 -118,93 -48,22 -87,10 -124,-25 0,0 -118,13 -176,10 -31,-2 -114,35 -114,35 -88,15 -176,30 -264,46 0,0 -77,-24 -109,-25 -185,-10 -370,-22 -554,-34 -81,-1 -154,23 -224,63 -20,-1 -42,-2 -62,-3 -92,20 -183,40 -275,60 0,0 -127,49 -147,-11 -21,-64 -17,-44 -81,-66 -44,-15 -157,-31 -157,-31 -60,41 -120,82 -181,123 -36,20 -143,10 -185,6z"/>
   </g>
   <path class="fil1" d="M14612 16888c-3817,-71 -6853,-285 -10626,-844l-206 -8"/>
   <g>
    <path class="fil0" d="M9634 10041c-22,-8 -43,-16 -65,-24 -6,-25 -4,-45 13,-65 23,-23 9,11 24,-23 40,-81 24,-93 5,-173 -28,7 -57,14 -85,21 22,-27 45,-55 67,-82 26,2 53,4 79,6 9,22 19,43 28,64 20,-12 45,-85 42,-107 -6,-17 -13,-34 -20,-52 -17,-1 -33,-1 -50,-2 21,-34 42,-68 63,-102 15,-70 30,-141 45,-211 -28,16 -55,33 -82,49 0,0 15,-72 32,-99 19,-30 59,-232 58,-273 0,-16 -1,-32 -1,-47 34,30 11,-140 11,-141 -13,-113 -100,-660 -85,-726 14,-65 55,-207 87,-261 30,-48 102,-323 103,-382 0,-19 1,-37 1,-55 84,-516 164,-1049 261,-1561 14,-65 29,-128 33,-195 0,-47 0,-94 0,-142 -10,-33 -19,-65 -29,-98 12,-28 25,-55 37,-83 27,17 54,34 81,51 22,-4 18,-48 16,-64 0,-3 0,-6 -1,-10 -6,-20 -12,-41 -18,-61 16,4 32,7 48,10 56,-23 78,15 66,-77 -13,-101 -50,-45 -119,-3 -20,-30 -41,-60 -62,-90 7,-51 14,-103 21,-154 -12,-68 10,-200 22,-266 11,-61 22,-121 33,-182 -5,-50 -10,-100 -16,-150 12,-53 24,-105 35,-158 23,-31 56,-109 56,-109 -25,-26 -49,-58 -48,-96 6,-48 -18,-100 -12,-156 6,-59 -35,-76 -47,-132 -8,-41 -17,-95 -38,-132 -19,-33 -145,-66 -183,-69 -16,-1 -33,-2 -49,-4 131,10 -1165,-88 -1310,-177 -52,-32 -86,-63 -133,-94 -54,-37 -377,-129 -456,-150 -107,-30 -142,-80 -263,-77 -94,-3 -180,-31 -261,-76 3,-4 -53,45 -49,-33 2,-42 -31,-186 -46,-79 -7,57 -5,115 11,170 0,0 -14,94 -43,93 -19,-1 -14,-7 -30,-2 -21,8 -20,-16 -22,8 -2,29 0,42 26,59 36,23 31,40 -4,62 -13,9 -27,19 -40,28 -21,3 -31,11 -13,29 23,20 66,62 66,62 0,0 -27,66 -8,96 16,26 -17,10 -43,29 -31,23 -15,27 -5,52 11,25 14,51 33,72 20,26 23,130 23,128 -3,78 -26,55 10,140 14,34 58,69 -3,86 -36,11 -58,34 -54,74 -8,43 -15,86 -23,129 -8,45 82,-15 95,-22 -7,40 -11,91 -44,119 -24,20 -23,115 -23,115 -9,32 -19,64 -28,96 0,0 29,66 31,94 3,41 4,124 4,124 0,-8 -5,59 -4,62 9,28 -24,793 -33,806 -5,8 -9,16 -14,24 -15,100 -31,200 -46,300 -7,80 -15,161 -22,241 -19,153 -46,306 -70,459 -13,-18 -26,-36 -38,-54 -2,92 2,219 -17,307 -10,47 -31,131 -30,177 4,52 -52,132 -32,198 17,59 -11,512 -27,587 -103,585 -191,1198 -275,1787 -14,-33 -27,-65 -41,-97 0,0 -6,71 -13,105 -8,41 -34,123 -34,123 -2,26 -5,51 -7,77 4,-15 -23,115 -7,88 19,-31 50,-97 50,-97 0,0 -12,155 -27,230 -24,117 -10,254 -33,371 -27,289 12,401 -65,854 -28,166 -150,875 -119,1042 -8,68 -16,137 -24,205 -19,50 -37,99 -55,149 -26,78 -52,155 -77,233 12,29 24,57 36,86 0,0 -6,91 -13,136 -6,38 -23,86 -19,124 11,136 8,412 8,412 -16,17 -32,35 -49,52 0,0 2,194 -11,288 -14,98 3,289 6,397 0,248 -29,589 -9,823 9,40 -56,208 -40,276 22,90 13,95 12,185 0,0 107,21 112,57 19,113 21,254 58,360 24,73 19,232 48,291 28,59 79,315 82,383 13,194 -103,443 -17,659 14,37 63,167 -11,68 -1,22 -2,44 -2,67 -17,55 -35,110 -51,165 -27,28 -53,56 -80,84 0,-1 -9,91 30,66 33,-23 43,-61 49,-98 984,-62 1763,-142 2730,-398 -19,-51 -65,-168 8,-194 71,-11 81,-56 84,-117 2,-35 -16,-57 -14,-108 3,-62 5,-161 32,-215 15,-31 -73,-220 -78,-291 -14,-202 -90,-362 -68,-582 10,-97 3,-392 3,-392 34,50 67,99 102,149 0,0 11,-209 -6,-292 -11,-55 -24,-137 -18,-194 23,-26 46,-53 70,-79 0,0 76,-527 -4,-714 -29,-67 -55,-107 -74,-175 -14,-64 2,-125 45,-174 0,0 7,-173 20,-256 7,-46 -14,-170 -14,-170 1,-131 2,-262 3,-393 0,0 38,-109 46,-160 47,-277 96,-554 146,-830 17,-115 12,-234 -16,-347 6,-31 12,-62 17,-92 0,-141 0,-283 1,-424 0,0 -20,-198 43,-223 74,-29 55,-40 84,-119 27,-72 67,-237 67,-237 -27,-95 -55,-190 -82,-285 -13,-59 23,-218 36,-282z"/>
   </g>
   <path class="fil1" d="M7135 17739c7,-3758 1295,-9018 2082,-12704 195,-911 260,-1333 296,-2248"/>
   <g>
    <path class="fil0" d="M9014 4844c5,-22 9,-45 13,-67 0,0 21,-17 34,4 11,19 -5,11 12,21 44,29 54,6 90,-19 -3,-27 -7,-54 -10,-81 14,18 28,36 42,54 -1,26 -3,53 -4,79 -11,12 -23,25 -34,37 5,16 43,32 55,26 9,-9 18,-18 27,-27 0,-16 1,-33 1,-49 18,16 35,31 53,47 37,4 74,9 111,13 -9,-24 -17,-49 -26,-74 0,0 39,5 52,17 15,14 122,23 144,17 8,-3 17,-5 25,-8 -16,36 71,-9 75,-11 48,-24 365,-196 388,-193 33,4 117,26 141,46 25,21 177,51 209,43 10,-2 20,-5 31,-7 284,4 606,4 887,23 40,5 75,10 116,5 28,-7 56,-14 85,-20 19,-14 39,-28 58,-43 17,8 34,17 51,25 -10,29 -20,58 -30,87 3,21 32,12 43,5 9,-9 18,-18 27,-27 -2,16 -4,32 -6,49 6,37 -11,80 33,53 49,-29 18,-68 4,-118 14,-25 28,-50 43,-74 24,-1 48,-1 73,-2 38,-21 91,-18 133,-14 32,4 63,8 95,11 27,-10 54,-21 81,-31 28,7 57,14 85,21 13,18 57,47 57,47 0,0 31,-56 54,-53 25,3 52,-24 85,-20 32,4 43,-38 74,-51 25,-11 53,-21 73,-41 19,-20 47,-151 51,-183 2,-16 4,-32 6,-49 49,-355 113,-987 203,-1304 20,-47 43,-87 65,-132 43,-91 98,-345 124,-453 24,-98 57,-155 66,-260 6,-74 66,-260 66,-260 0,0 -18,-52 21,-47 34,4 89,-29 44,-44 -30,-9 -59,-6 -87,7 -14,2 -49,-20 -50,-44 2,-15 5,-16 4,-30 -2,-18 10,-20 -3,-22 -22,-3 -28,6 -38,26 -16,35 -27,31 -38,-5 -5,-13 -10,-27 -15,-40 -1,3 1,-42 -18,-13 -14,22 -47,65 -47,65 0,0 -45,-27 -68,-8 -20,16 -7,-20 -19,-43 -16,-31 -20,-15 -39,-5 -20,12 -40,14 -57,34 -20,20 -102,26 -102,26 -62,0 -44,-24 -109,17 -26,17 -52,62 -65,3 -7,-27 -19,-55 -53,-47 -29,-4 -58,-7 -88,-10 -29,-3 11,81 14,92 -28,-3 -59,-2 -75,-31 -12,-21 -68,-8 -68,-8 -17,-5 -35,-10 -52,-15 0,0 -32,36 -49,43 -20,8 -61,23 -61,23 19,-4 -496,109 -518,87 -5,-3 -9,-7 -14,-10 -59,0 -117,-1 -175,-1 -46,5 -92,9 -138,14 -86,4 -172,1 -258,0 10,-15 20,-31 30,-46 -44,10 -128,35 -170,30 -22,-3 -77,-9 -97,-2 -22,9 -75,-29 -108,-2 -28,23 -274,67 -314,63 -302,-9 -616,-5 -919,-6 17,-18 33,-36 50,-54 0,0 -36,4 -53,2 -21,-2 -61,-16 -61,-16 -13,1 -26,3 -39,4 3,1 -58,-7 -44,6 14,13 48,36 48,36 0,0 -78,10 -115,6 -53,-6 -132,25 -185,19 -72,7 -45,79 -423,48 -109,-11 -212,-16 -321,-18 -44,1 -153,3 -192,27 -35,0 -70,1 -105,2 -26,-12 -53,-24 -80,-36 -43,-16 -86,-32 -129,-47 -16,16 -31,31 -47,46 0,0 -52,6 -77,4 -22,-1 -51,-11 -72,-4 -78,28 -245,59 -245,59 -11,-14 -23,-28 -34,-42 6,-1 -129,25 -179,23 -45,-2 -196,39 -251,51 -98,21 -475,47 -526,73 -17,9 -138,-35 -173,-16 -56,30 -53,21 -113,26 0,0 -10,108 -31,116 -65,26 -155,42 -211,82 -34,24 -135,39 -160,64 -23,22 -162,93 -193,98 -56,12 -190,-83 -249,-7 -59,74 -8,-27 -16,-12 -5,0 -10,-1 -15,-2 -9,-16 -16,-34 -18,-52 1,-26 5,-52 10,-78 6,8 0,21 -2,30 -2,7 -9,44 -11,48 -157,950 -225,1755 -129,2722 0,0 118,-69 122,9 3,54 17,80 71,84 23,1 29,-17 69,-15 41,2 105,2 139,26 22,15 138,-80 192,-90 135,-25 235,-111 394,-106 87,1 185,-6 270,-30 -32,38 -64,76 -97,114 0,0 152,-10 202,-32 38,-16 91,-36 133,-36 19,20 38,41 57,61 0,0 362,12 467,-82 40,-36 61,-66 104,-94 58,-38 106,24 106,24 0,0 97,-15 144,-12 25,1 89,-36 89,-36 63,-15 125,-31 187,-48 0,0 47,23 66,24 54,4 116,7 169,16 43,7 90,11 133,16 66,4 126,-20 181,-56 16,2 33,3 49,5 74,-18 147,-35 221,-53 0,0 103,-46 115,14 12,62 6,42 60,67 31,14 123,34 123,34 50,-40 100,-80 150,-120 29,-20 112,-8 147,-4z"/>
   </g>
   <path class="fil1" d="M4951 3095c351,71 2364,69 3093,159 1627,201 3298,379 4932,582"/>
   <g>
    <path class="fil0" d="M2480 6255c-3,-23 -7,-45 -10,-68 0,0 6,-21 17,-3 8,11 1,12 11,17 31,20 31,-14 39,-38 -8,-25 -17,-50 -25,-75 11,14 23,29 34,43 6,26 12,51 18,77 -3,14 -5,28 -7,43 6,12 29,23 34,13 2,-11 5,-21 7,-32 -4,-16 -8,-32 -12,-48 12,11 25,23 38,34 19,-4 38,-8 58,-12 -10,-22 -21,-44 -31,-65 0,0 20,-4 30,5 11,10 65,-4 75,-15 3,-4 7,-9 10,-13 2,38 31,-21 34,-27 15,-29 127,-269 137,-271 20,-4 65,0 81,13 17,14 99,10 113,-6 4,-5 8,-9 13,-14 -28,12 328,-160 433,-187 22,-6 39,-8 57,-24 11,-13 23,-27 34,-40 5,-18 9,-36 14,-55 11,4 21,7 32,11 5,30 9,59 14,89 7,18 18,5 22,-6 2,-11 3,-21 4,-32 4,16 9,32 13,47 9,20 19,81 33,42 14,-41 -17,-75 -36,-112 -1,-27 -3,-54 -4,-81 11,-7 22,-14 33,-20 10,-27 32,-39 58,-47 16,-5 32,-9 48,-14 9,-17 18,-33 27,-50 16,-1 31,-2 47,-3 10,11 43,29 43,29 0,0 -7,-60 7,-64 2,-1 2,-1 4,-2 0,0 -103,-5 -139,-2 -27,3 -50,-5 -66,-27 -1,-2 11,-26 14,-29 14,-16 25,-29 33,-49 11,-29 14,-152 14,-188 0,-16 0,-33 0,-49 1,-408 -9,-923 23,-1319 7,-47 16,-92 24,-138 22,-135 26,-324 34,-465 5,-92 18,-172 16,-266 -1,-84 16,-266 16,-266 0,0 -12,-49 7,-49 18,0 39,-40 18,-49 -20,-11 -42,19 -42,19 -16,-9 -24,-20 -25,-38 0,-12 1,-18 0,-30 -1,-9 3,-21 -2,-21 -14,0 -15,19 -17,30 -6,34 -11,36 -19,0 -3,-13 -7,-26 -10,-38 0,4 -2,-42 -10,-11 -6,24 -19,70 -19,70 0,0 -24,-21 -35,0 -9,19 -7,-26 -12,-40 -1,-3 -5,-16 -10,-16 -41,5 -74,12 -114,19 -104,19 -224,36 -321,80 -30,13 -222,74 -227,80 15,-1 8,3 -4,17 -25,17 -24,-11 -32,42 -3,21 3,70 -21,17 -3,-6 -21,-50 -33,-33 -11,3 -22,7 -33,10 -11,3 31,76 35,83 -18,5 -23,8 -36,-12 -11,-17 -26,7 -26,7 -8,-1 -15,-2 -23,-2 0,0 2,37 -4,52 -4,12 -15,35 -15,35 0,0 -156,203 -163,196 -3,-2 -6,-4 -8,-7 -22,12 -44,24 -67,37 -16,14 -33,29 -49,43 -31,21 -67,38 -101,55 0,-17 -1,-33 -1,-50 -11,15 -42,60 -59,64 -10,2 -34,8 -39,18 -6,12 -38,-11 -44,21 -5,24 -91,120 -112,125 -128,53 -261,125 -391,181 3,-21 6,-41 9,-62 0,0 -15,12 -22,13 -9,2 -31,-3 -30,-3 -5,4 -11,8 -16,12 0,0 -27,5 -18,14 9,9 30,25 30,25 0,0 -32,25 -49,29 -20,4 -57,52 -77,55 -21,15 39,75 -179,132 -54,13 -206,50 -233,108 -15,6 -31,13 -47,19 -14,-8 -28,-16 -42,-23 -21,-9 -42,-19 -64,-28 -4,17 -7,34 -11,51 0,0 -21,12 -31,14 -9,2 -23,-5 -30,5 -21,29 -89,87 -87,85 -7,-13 -14,-25 -21,-38 3,-3 -49,38 -65,41 -9,2 -74,63 -87,74 -28,25 -182,104 -191,120 -5,10 -62,-21 -73,1 -16,31 -14,24 -43,37 0,0 14,108 6,118 -26,36 -61,59 -79,103 -11,25 -58,56 -65,81 -7,23 -65,110 -86,121 -24,15 -141,-48 -181,39 -42,88 -16,-23 -20,-8 -6,1 -13,2 -19,3 -18,-14 -37,-27 -55,-41 -12,-25 -24,-49 -36,-74 -22,-2 -18,18 -14,32 7,18 16,36 35,44 190,912 322,1745 557,2668 0,0 44,-87 61,-9 6,25 14,78 50,72 14,-2 7,-20 30,-24 23,-4 50,-10 69,9 14,13 45,-92 70,-110 46,-32 83,-134 149,-144 39,-8 77,-26 105,-55 -7,41 -14,81 -21,122 32,-6 57,-24 76,-51 10,-16 28,-43 47,-48 11,18 22,37 33,55 80,-17 149,-47 180,-128 10,-36 14,-70 29,-104 19,-43 52,11 52,11 0,0 44,-26 66,-30 20,-3 38,-47 38,-47 31,-25 63,-50 94,-76 0,0 35,14 47,11 74,-12 149,-25 223,-38 45,-8 76,-93 76,-93 8,-1 16,-3 25,-4 32,-32 64,-65 96,-97 0,0 40,-65 60,-11 18,50 6,37 46,52 23,8 44,11 68,7 15,-49 30,-98 45,-147 9,-24 49,-31 71,-35z"/>
   </g>
   <path class="fil1" d="M113 5162c1239,-195 2517,-368 3676,-727l237 0"/>
   <g>
    <path class="fil0" d="M29601 9484c22,5 45,10 67,16 9,18 8,35 -6,50 -20,19 -10,-8 -22,20 -32,70 -11,82 13,146 28,-8 55,-16 82,-24 -20,26 -39,51 -58,77 -26,0 -53,0 -79,0 -11,-19 -23,-37 -34,-56 -19,12 -36,81 -31,101 8,16 16,32 24,48 16,-1 33,-2 50,-3 -18,35 -36,71 -53,107 -9,77 -18,153 -27,230 26,-21 52,-43 78,-64 0,0 -9,81 -24,113 -18,40 -41,282 -38,331 1,20 3,40 4,59 -31,-32 -10,121 -2,183 29,214 143,841 123,1015 -14,119 -41,315 -78,425 -38,110 -93,525 -92,646 0,31 0,62 0,93 -75,908 -140,1825 -226,2730 -12,110 -26,217 -28,328 1,76 3,151 5,227 11,49 22,98 33,147 -11,46 -23,91 -34,136 -28,-20 -56,-40 -84,-60 -23,11 -16,89 -12,112 8,21 15,42 23,64 -16,-2 -32,-4 -49,-5 -56,32 -79,-7 -60,92 21,109 52,44 119,-11 23,30 46,61 69,91 -3,57 -6,115 -8,172 17,78 6,215 -2,293 -7,65 -14,130 -21,195 8,50 16,100 25,150 -9,50 -18,100 -27,150 -21,27 -51,94 -51,94 0,0 55,43 52,77 -4,36 22,72 18,114 -4,39 37,49 51,85 10,26 21,55 42,74 21,18 152,42 184,45 16,2 33,3 49,5 378,40 955,88 1309,165 44,14 91,31 135,43 124,35 329,55 460,70 90,10 176,18 265,26 80,7 267,10 266,10 -1,-1 48,20 50,-9 14,-120 36,-431 52,-90 1,25 11,109 -23,117 5,4 27,0 37,0 11,1 19,2 30,3 2,0 21,4 21,1 1,-9 -23,-13 -29,-14 -35,-8 -34,-13 2,-19 13,-2 26,-5 39,-8 -4,0 42,2 12,-12 -23,-10 -67,-36 -67,-36 0,0 25,-38 6,-61 -17,-20 20,-8 43,-20 32,-17 14,-23 5,-43 -12,-23 -14,-48 -34,-68 -22,-27 -24,-141 -24,-138 3,-92 24,-71 -12,-173 -15,-42 -59,-83 1,-113 43,-23 56,-56 52,-104 6,-59 13,-117 19,-176 7,-61 -81,31 -95,42 5,-50 7,-120 39,-161 25,-32 16,-150 16,-150 7,-41 15,-82 22,-123 0,0 -34,-76 -37,-109 -6,-48 -14,-145 -14,-145 -9,-389 -30,-1038 7,-1404 4,-15 9,-29 13,-44 13,-177 26,-353 40,-530 6,-141 11,-282 17,-423 16,-269 39,-537 60,-805 13,27 27,54 40,81 0,-167 -9,-357 9,-521 10,-90 28,-211 25,-299 -6,-98 49,-222 26,-328 -28,-126 -14,-752 3,-902 55,-659 108,-1357 131,-2017 18,23 35,46 52,69 0,0 -3,-51 0,-76 3,-27 18,-81 18,-80 -1,-15 -2,-31 -3,-46 -1,4 8,-63 -5,-48 -14,15 -37,53 -37,53 0,0 -10,-81 -5,-118 4,-37 -28,-105 -27,-112 0,-4 -43,-11 -44,-10 -36,40 69,-751 85,-845 28,-168 171,-950 151,-1114 12,-71 23,-142 35,-213 21,-51 43,-102 64,-152 31,-79 62,-157 93,-236 -10,-30 -20,-60 -30,-90 0,0 13,-93 23,-139 9,-39 29,-86 29,-126 0,-141 28,-424 28,-424 18,-16 36,-33 53,-50 0,0 17,-200 40,-296 25,-103 28,-298 37,-412 30,-272 99,-613 111,-873 -4,-49 84,-219 77,-297 -9,-99 0,-110 14,-206 0,0 -104,-34 -104,-74 -3,-132 16,-287 -7,-415 -15,-93 17,-265 -6,-344 -22,-83 -33,-381 -25,-470 39,-295 154,-511 115,-840 -5,-34 -39,-237 21,-89 4,-29 9,-60 12,-90 26,-74 51,-148 76,-222 31,-36 61,-72 91,-109 -1,2 23,-127 -20,-96 -33,23 -64,134 -64,134 -918,-51 -1889,58 -2777,282 12,61 38,227 -37,252 -78,7 -92,78 -102,142 -7,44 7,79 -3,136 -13,76 -28,195 -64,261 -19,35 39,273 34,354 -15,231 36,432 -16,675 -24,111 -57,437 -57,437 -27,-58 -54,-117 -81,-175 0,0 -40,227 -34,324 5,76 5,141 -8,216 -27,27 -53,54 -80,81 0,0 -146,566 -86,787 20,76 43,124 53,199 7,77 -16,133 -64,191 0,0 -26,192 -48,285 -12,52 -3,192 -3,192 -14,149 -27,297 -41,446 0,0 -47,124 -60,184 -72,328 -141,656 -204,986 -26,156 -21,273 0,427 -7,39 -14,78 -21,116 -5,180 -8,359 -11,539 0,0 19,254 -46,295 -14,9 -28,17 -41,28 -15,4 -19,22 -29,37 -14,21 -31,92 -31,92 43,47 83,98 119,150 20,35 4,149 -1,189z"/>
   </g>
   <path class="fil1" d="M32692 1144c-309,2979 -1128,5002 -1588,8103 -66,447 -1041,9151 -1035,9244"/>
   <g>
    <path class="fil0" d="M33366 17546c5,-22 10,-45 15,-67 16,-8 28,-9 41,5 14,20 -7,10 15,21 54,30 63,9 110,-16 -5,-27 -9,-54 -14,-81 18,19 35,37 53,56 -1,26 -2,53 -3,79 -14,12 -27,24 -41,36 7,17 54,34 68,28 11,-9 22,-17 33,-26 0,-16 0,-33 1,-49 22,16 44,33 66,49 46,6 91,12 137,17 -11,-25 -22,-50 -33,-75 0,0 48,6 65,19 19,15 153,29 180,23 10,-2 21,-4 31,-7 -21,36 92,-6 94,-7 65,-23 457,-177 491,-172 42,6 148,32 182,55 32,23 229,63 269,58 13,-2 26,-3 39,-5 371,24 781,53 1148,99 51,8 97,18 149,16 36,-4 73,-8 109,-11 25,-12 51,-24 76,-37 21,10 43,21 64,31 -13,28 -27,56 -40,84 3,22 41,15 55,10 12,-8 24,-16 36,-24 -3,16 -6,32 -9,48 8,43 -15,78 41,57 62,-24 26,-62 8,-117 19,-23 38,-47 56,-70 31,2 62,4 93,6 47,-17 122,-7 169,1 40,7 80,15 119,22 34,-7 69,-14 103,-22 35,10 70,21 105,31 17,21 68,55 68,55 0,0 41,-53 70,-47 32,6 67,-17 106,-9 39,8 54,-33 94,-42 30,-7 66,-14 91,-31 25,-18 66,-144 73,-176 3,-16 7,-32 10,-48 69,-305 217,-1031 325,-1280 29,-46 60,-80 89,-123 48,-68 149,-345 183,-436 38,-98 81,-140 100,-251 19,-91 52,-171 99,-249 2,3 -21,-56 31,-45 38,9 120,-14 60,-37 -41,-15 -75,-15 -117,-6 0,0 -66,-25 -60,-52 4,-16 8,-14 6,-29 -2,-21 15,-18 -2,-22 -25,-5 -35,-2 -50,20 -24,33 -37,26 -50,-11 -6,-14 -12,-29 -18,-43 0,0 2,-41 -23,-16 -20,20 -65,58 -65,58 0,0 -57,-34 -89,-18 -27,13 -8,-18 -24,-46 -19,-34 -26,-18 -52,-11 -26,8 -54,8 -77,26 -29,18 -139,12 -136,12 -78,-9 -60,-30 -146,2 -35,13 -71,56 -86,-6 -11,-37 -30,-58 -70,-54 -39,-7 -78,-15 -117,-22 -39,-7 12,82 17,94 -34,-7 -78,-9 -100,-40 -15,-22 -91,-17 -91,-17 -24,-7 -47,-14 -70,-21 0,0 -46,33 -67,38 -28,6 -83,16 -83,16 59,-4 -682,46 -703,30 -6,-4 -13,-8 -19,-12 -79,-7 -158,-13 -238,-19 -63,0 -125,0 -188,1 -116,-4 -233,-15 -349,-23 13,-15 26,-29 40,-44 -64,7 -168,25 -229,16 -32,-5 -101,-16 -130,-10 -33,8 -99,-35 -144,-10 -37,21 -367,48 -418,41 -390,-30 -800,-39 -1192,-53 21,-18 41,-35 62,-52 0,0 -45,3 -66,0 -20,-3 -55,-11 -74,-17 -1,0 -3,-1 -3,-1 -13,1 -25,3 -38,4 3,1 -59,-7 -44,5 14,14 48,36 48,36 0,0 -81,10 -117,6 -58,-6 -142,25 -202,19 -137,10 -108,74 -524,48 -121,-8 -618,-41 -733,4 -51,-1 -103,-1 -154,-2 -38,-13 -77,-27 -115,-40 -60,-18 -120,-36 -181,-54 -22,15 -43,29 -64,44 0,0 -71,3 -105,0 -29,-3 -68,-15 -97,-8 -105,24 -322,44 -322,44 -14,-15 -28,-30 -42,-44 4,0 -158,17 -227,11 -67,-6 -234,24 -311,33 -127,15 -556,6 -633,33 -23,8 -159,-46 -203,-30 -66,25 -65,17 -134,17 0,0 -18,108 -44,114 -78,21 -183,28 -254,64 -44,22 -163,25 -196,50 -32,22 -204,77 -244,79 -82,7 -244,-105 -343,-35 -96,65 -19,-23 -27,-15 -9,-1 -19,-3 -28,-4 -19,-19 -37,-39 -54,-59 -5,-27 -9,-55 -13,-83 -21,-8 -23,9 -25,26 0,20 3,41 20,54 -154,949 -255,1753 -192,2725 43,-18 131,-48 141,20 1,61 23,83 80,90 27,3 40,-14 83,-9 48,6 125,12 164,39 24,17 174,-68 235,-73 165,-13 293,-89 479,-71 110,9 219,9 328,-7 -41,35 -83,71 -124,106 0,0 182,3 249,-16 46,-13 117,-29 166,-26 23,22 46,44 69,66 0,0 464,41 612,-46 56,-33 87,-62 145,-86 55,-19 105,-7 149,31 0,0 144,-7 214,-1 38,3 139,-29 139,-29 105,-11 211,-22 316,-34 0,0 89,27 128,30 207,18 415,35 622,53 84,3 160,-17 233,-57 20,2 41,3 62,5 87,-17 174,-35 260,-55 0,0 112,-47 126,12 15,62 8,42 64,66 29,13 118,32 118,32 44,-40 88,-81 130,-123 12,-10 38,-14 53,-13 32,2 63,5 95,9z"/>
   </g>
   <path class="fil1" d="M28062 15554c885,176 4204,385 5386,529 1582,192 3426,457 4979,803"/>
   <g>
    <path class="fil0" d="M33123 8967c4,-22 9,-45 13,-67 15,-9 26,-10 39,4 13,19 -6,10 14,21 51,29 60,7 103,-19 -5,-27 -9,-54 -14,-81 17,18 33,36 50,54 -1,26 -1,53 -2,79 -13,12 -25,25 -38,37 7,17 51,32 64,26 10,-9 20,-18 31,-27 0,-16 0,-33 0,-49 20,16 41,31 62,47 42,4 85,9 127,13 -11,-25 -21,-49 -32,-74 0,0 44,5 60,17 18,14 141,23 165,16 9,-3 19,-5 28,-8 -18,37 83,-10 85,-11 54,-24 407,-201 432,-199 37,3 132,23 161,43 29,21 201,46 236,37 11,-3 22,-6 34,-8 327,-7 650,-26 974,-34 43,1 82,3 124,-7 29,-10 58,-19 87,-29 19,-16 38,-33 56,-49 19,6 38,13 56,19 -7,30 -14,60 -20,90 6,21 35,7 46,0 8,-10 17,-20 25,-30 0,16 0,33 0,49 12,37 0,80 42,48 47,-35 10,-69 -12,-117 11,-26 23,-53 34,-79 25,-4 50,-8 75,-12 34,-26 94,-31 134,-34 33,-1 66,-2 98,-4 26,-15 51,-29 77,-44 29,2 59,4 88,5 17,15 65,36 65,36 0,0 20,-61 44,-63 25,-2 47,-34 80,-37 31,-3 33,-46 61,-66 22,-16 46,-32 60,-55 14,-25 10,-157 7,-189 -2,-16 -4,-33 -5,-49 -39,-383 -114,-949 -114,-1315 5,-48 13,-95 17,-142 12,-119 -7,-341 -16,-466 -6,-95 -1,-171 -17,-267 -13,-82 -20,-266 -20,-266 0,0 -19,-47 0,-50 19,-3 33,-46 11,-51 -22,-7 -40,25 -40,25 -18,-6 -28,-15 -32,-34 -2,-12 -1,-18 -4,-30 -3,-9 1,-22 -5,-21 -14,2 -13,20 -14,32 -2,35 -7,37 -20,2 -5,-12 -10,-24 -15,-37 0,4 -7,-42 -12,-9 -3,24 -13,72 -13,72 0,0 -29,-18 -39,4 -8,19 -10,-24 -18,-39 -14,-28 -14,-11 -23,2 -11,16 -21,22 -28,43 -8,21 -58,43 -58,43 -42,11 -30,-18 -68,34 -15,21 -26,69 -43,13 -6,-18 -16,-51 -41,-39 -21,1 -42,3 -63,3 -21,1 18,79 21,89 -24,1 -43,6 -58,-19 -11,-19 -50,2 -50,2 -14,-3 -27,-5 -41,-8 0,0 -17,38 -33,50 -15,11 -45,30 -45,30 10,-4 -402,164 -426,143 -4,-3 -9,-6 -13,-9 -53,5 -106,9 -158,14 -42,8 -85,16 -127,24 -82,10 -165,13 -247,16 9,-16 18,-32 26,-47 -43,12 -123,41 -165,38 -23,-2 -78,-5 -97,2 -22,10 -76,-25 -109,3 -29,25 -280,76 -323,72 -333,-2 -669,3 -1003,2 18,-18 36,-36 55,-54 0,0 -40,4 -59,2 -23,-2 -69,-16 -69,-16 -15,1 -29,3 -43,4 4,1 -66,-7 -50,5 17,14 55,36 55,36 0,0 -89,10 -130,5 -62,-7 -148,25 -210,18 -120,9 -84,76 -485,46 -98,-8 -500,-41 -593,5 -39,0 -78,0 -117,0 -28,-13 -56,-26 -85,-38 -44,-17 -88,-34 -133,-51 -16,15 -33,30 -49,44 0,0 -52,4 -77,1 -21,-2 -50,-13 -70,-7 -75,25 -235,50 -235,50 -10,-14 -20,-29 -30,-43 7,-1 -120,20 -164,16 -36,-3 -180,33 -226,43 -83,17 -426,38 -467,61 -15,8 -124,-36 -157,-18 -51,29 -49,21 -105,26 0,0 -15,110 -30,116 -63,27 -148,43 -202,84 -34,25 -137,41 -162,68 -26,26 -175,99 -212,106 -84,19 -258,-72 -369,19 -102,83 -34,-13 -38,-9 -13,1 -25,1 -38,2 -32,-15 -64,-29 -96,-44 -18,-25 -35,-50 -53,-76 0,0 -51,-5 -35,32 12,25 30,39 57,45 140,896 202,1773 368,2707 29,-28 78,-66 91,-3 5,41 12,78 59,78 19,0 17,-19 51,-20 32,0 79,-3 105,19 17,15 97,-84 142,-97 99,-27 173,-116 296,-111 68,1 140,-6 205,-28 -26,37 -51,75 -76,113 55,1 104,-7 154,-30 32,-17 65,-32 102,-34 14,20 30,42 44,63 0,0 312,3 388,-70 37,-34 57,-64 97,-90 54,-36 97,28 97,27 0,0 97,-11 142,-6 26,2 96,-32 95,-32 74,-13 148,-26 222,-39 0,0 64,26 91,28 159,16 317,32 476,49 73,3 138,-20 200,-57 18,2 37,3 55,5 82,-18 165,-35 247,-53 0,0 115,-45 131,14 16,63 11,43 70,68 38,15 140,34 140,34 56,-40 112,-79 168,-119 33,-19 129,-8 167,-4z"/>
   </g>
   <path class="fil1" d="M28789 7223c2360,-171 6164,740 8339,396"/>
   <g>
    <path class="fil0" d="M32417 12837c4,-23 7,-45 11,-68 0,0 18,-18 29,3 9,17 -4,11 10,20 38,28 48,2 77,-23 -3,-27 -6,-53 -9,-80 12,18 24,35 36,53 -1,26 -2,52 -3,79 -10,13 -19,25 -29,38 5,16 36,31 47,24 8,-9 15,-18 23,-28 0,-16 1,-33 1,-49 15,15 30,30 45,45 31,3 63,6 94,9 -7,-24 -15,-49 -22,-73 0,0 33,3 44,15 13,13 104,20 122,12 7,-3 14,-6 22,-8 -15,37 60,-11 63,-13 39,-24 310,-205 329,-202 28,3 98,24 117,43 20,20 145,47 172,39 8,-3 17,-5 25,-8 219,-1 486,-8 700,6 30,4 56,9 86,2 21,-7 42,-15 63,-22 15,-15 30,-29 44,-44 12,8 24,16 36,24 -8,29 -17,58 -25,87 1,20 21,11 31,4 7,-9 14,-18 21,-27 -2,16 -4,32 -6,49 2,28 -13,81 21,52 36,-31 15,-73 8,-117 11,-25 22,-50 34,-75 17,-1 34,-3 51,-4 26,-21 61,-21 92,-18 21,3 43,5 64,8 19,-11 37,-22 56,-34 18,6 36,12 54,18 7,15 34,45 34,45 0,0 22,-57 38,-55 16,2 34,-26 55,-23 19,2 30,-41 48,-54 18,-13 34,-24 46,-43 14,-24 36,-151 41,-184 2,-16 4,-32 6,-49 52,-394 111,-930 195,-1305 14,-46 30,-89 45,-134 41,-125 71,-322 97,-456 18,-92 42,-167 52,-262 9,-82 52,-262 52,-262 0,0 -7,-50 14,-48 20,3 47,-35 26,-46 -21,-14 -48,13 -48,13 -16,-10 -25,-22 -23,-42 2,-12 4,-18 4,-30 0,-11 6,-21 0,-21 -15,-2 -19,15 -22,27 -11,33 -17,34 -21,-3 -2,-13 -4,-26 -6,-40 -1,4 3,-42 -10,-12 -10,23 -31,67 -31,67 0,0 -25,-25 -39,-5 -13,17 -5,-25 -9,-42 -8,-31 -11,-14 -23,-3 -14,14 -26,16 -37,36 -12,18 -65,30 -65,30 -42,2 -26,-23 -71,21 -18,18 -37,64 -43,5 -2,-18 -5,-53 -32,-46 -20,-3 -40,-4 -60,-7 -20,-2 3,81 5,91 -23,-3 -40,-1 -50,-28 -7,-20 -47,-6 -47,-6 -12,-4 -24,-9 -36,-13 0,0 -22,36 -37,45 -15,9 -45,24 -45,24 7,-2 -382,115 -395,98 -4,-3 -7,-7 -11,-10 -47,1 -93,1 -140,2 -38,6 -75,11 -113,16 -71,5 -143,4 -215,4 9,-16 17,-31 26,-46 -36,10 -110,36 -145,32 -19,-2 -67,-8 -83,-1 -18,9 -65,-27 -93,0 -24,23 -241,72 -277,68 -270,-5 -566,8 -838,17 15,-19 30,-37 45,-56 0,0 -33,5 -49,4 -19,-2 -57,-14 -57,-14 -12,2 -24,4 -36,5 2,0 -54,-4 -41,7 13,13 46,34 46,34 0,0 -73,13 -107,10 -49,-4 -123,30 -172,26 -40,5 -36,79 -392,69 -79,-2 -402,-13 -471,40 -30,2 -61,5 -92,7 -23,-11 -45,-22 -68,-33 -35,-14 -70,-28 -105,-43 -12,16 -24,32 -36,48 0,0 -40,7 -60,7 -16,0 -39,-10 -55,-2 -51,26 -182,68 -178,66 -8,-14 -17,-27 -25,-41 7,-2 -94,29 -124,28 -22,0 -138,48 -168,60 -55,21 -319,75 -342,96 -10,9 -94,-26 -116,-6 -35,33 -30,23 -74,34 0,0 2,109 -12,118 -44,33 -102,55 -136,99 -20,25 -93,53 -107,80 -14,24 -108,112 -134,122 -41,19 -189,-47 -246,49 -59,95 -21,-20 -27,-6 -8,2 -17,3 -25,5 -24,-12 -48,-24 -72,-35 -16,-23 -33,-46 -49,-69 0,0 -36,0 -18,35 11,19 25,35 48,39 231,874 454,1763 649,2645 0,0 13,-83 28,-4 2,12 10,78 31,75 8,-1 2,-20 16,-22 19,-2 33,-5 45,14 8,13 34,-88 55,-104 43,-31 78,-126 147,-130 47,-5 79,-18 118,-44 -13,39 -26,79 -38,119 34,-2 65,-18 90,-41 16,-17 36,-37 61,-42 10,19 21,39 31,59 90,-4 190,-24 247,-99 22,-35 34,-67 61,-97 35,-40 67,20 67,20 0,0 66,-18 97,-17 28,1 65,-39 65,-39 51,-18 102,-37 154,-54 0,0 47,21 65,22 114,5 228,11 342,18 56,-1 104,-32 145,-69 13,1 27,1 40,2 60,-22 121,-44 181,-66 0,0 85,-51 96,7 11,59 3,40 52,64 24,12 104,28 103,28 41,-42 83,-84 125,-126 24,-21 94,-13 124,-10z"/>
   </g>
   <path class="fil1" d="M29340 11384c1312,-322 4691,153 6112,336"/>
   <g>
    <path class="fil0" d="M43760 17443c5,-22 11,-44 16,-67 0,0 24,-16 38,6 12,20 -6,10 13,21 49,31 59,10 101,-15 -3,-27 -7,-54 -10,-81 16,19 31,38 46,57 -2,26 -4,53 -6,79 -13,12 -26,23 -39,35 6,17 48,35 61,29 10,-9 21,-17 31,-25 1,-16 2,-33 2,-49 19,17 39,33 58,50 41,6 82,13 123,19 -9,-25 -18,-50 -26,-75 0,0 43,7 57,20 17,15 135,31 159,25 9,-2 19,-4 28,-6 -18,36 78,-4 83,-6 55,-21 408,-171 434,-166 36,6 125,34 151,57 25,23 188,65 223,60 11,-1 22,-3 33,-5 288,27 636,55 917,103 39,8 74,18 114,16 28,-4 57,-8 85,-12 21,-12 41,-24 62,-36 16,10 31,20 46,30 -13,28 -26,55 -38,83 0,21 29,15 41,9 10,-8 19,-16 29,-24 -4,16 -7,32 -11,48 2,36 -20,78 25,56 50,-24 25,-66 17,-116 16,-23 33,-46 49,-69 23,2 46,4 69,5 37,-17 88,-9 127,0 29,7 58,14 87,21 26,-7 52,-15 78,-22 25,10 49,20 74,30 9,18 44,53 44,53 0,0 36,-52 56,-47 22,6 49,-18 78,-10 27,7 43,-33 72,-42 24,-8 49,-15 69,-32 20,-18 65,-144 73,-174 4,-16 9,-31 13,-47 97,-338 258,-966 390,-1261 26,-44 54,-80 81,-121 57,-88 145,-323 188,-430 38,-92 80,-145 105,-247 18,-72 106,-247 106,-247 0,0 -9,-54 28,-43 33,9 91,-15 50,-36 -29,-14 -58,-15 -88,-6 0,0 -47,-25 -40,-51 4,-15 7,-14 8,-29 1,-18 13,-18 1,-22 -21,-6 -29,1 -41,19 -21,32 -31,27 -37,-10 -3,-14 -6,-28 -9,-42 -1,2 7,-41 -16,-16 -18,20 -56,58 -56,58 0,0 -41,-33 -66,-18 -22,13 -5,-20 -13,-45 -11,-33 -18,-18 -39,-11 -22,9 -43,8 -63,25 -22,16 -108,12 -107,12 -63,-9 -42,-30 -114,2 -29,13 -61,55 -67,-6 -4,-29 -13,-56 -48,-54 -30,-8 -61,-14 -92,-22 -30,-7 2,81 5,93 -29,-7 -61,-9 -75,-40 -10,-22 -70,-17 -70,-17 -18,-7 -36,-14 -54,-22 0,0 -38,32 -57,37 -22,6 -68,15 -68,15 34,-3 -557,39 -570,25 -5,-4 -10,-8 -15,-12 -65,-7 -130,-14 -195,-21 -52,0 -104,-1 -156,-1 -97,-5 -195,-17 -292,-26 12,-14 24,-29 36,-43 -53,6 -146,22 -196,13 -26,-5 -88,-16 -111,-12 -27,7 -85,-36 -124,-12 -33,20 -323,43 -369,35 -352,-36 -738,-54 -1094,-72 20,-17 40,-34 60,-51 0,0 -43,2 -63,-1 -25,-4 -74,-19 -74,-19 -16,1 -31,1 -47,2 6,1 -70,-11 -53,3 17,15 58,38 58,38 0,0 -95,6 -139,-1 -66,-9 -157,19 -223,10 -96,2 -129,68 -509,32 -98,-10 -520,-52 -613,-6 -40,-1 -80,-1 -120,-2 -29,-13 -58,-26 -87,-40 -45,-18 -90,-35 -134,-53 -17,15 -34,29 -50,44 0,0 -53,3 -79,0 -22,-2 -50,-14 -71,-7 -76,24 -238,47 -238,47 -10,-14 -19,-29 -29,-43 6,-1 -121,19 -165,15 -37,-3 -180,31 -226,40 -82,16 -424,31 -464,53 -15,8 -121,-39 -153,-22 -52,28 -47,19 -103,23 0,0 -13,108 -33,115 -63,26 -146,38 -200,77 -34,24 -135,36 -160,61 -27,25 -174,91 -210,96 -80,14 -244,-86 -354,-3 -103,75 -32,-16 -35,-12 -12,0 -24,-1 -36,-1 -29,-17 -58,-34 -87,-51 -14,-27 -28,-53 -43,-80 0,0 -47,-10 -35,29 10,26 24,41 51,50 16,937 47,1791 166,2727 34,-25 94,-61 105,4 3,47 12,79 63,81 21,1 22,-18 59,-17 35,2 89,1 118,25 19,16 113,-79 161,-90 108,-23 194,-108 324,-99 72,3 149,-2 218,-23 -28,37 -56,74 -83,111 56,3 112,-4 164,-26 30,-15 73,-32 108,-32 14,21 31,42 45,63 0,0 322,10 404,-63 38,-34 59,-63 100,-89 55,-35 99,29 99,29 0,0 98,-10 145,-5 27,3 97,-31 97,-31 75,-12 150,-24 225,-36 0,0 64,26 91,29 159,18 318,36 477,56 73,5 137,-18 200,-54 18,2 36,4 54,6 82,-16 164,-32 247,-48 0,0 115,-43 129,17 14,64 10,44 67,69 36,16 137,38 137,38 56,-38 112,-76 169,-114 33,-18 127,-3 165,2z"/>
   </g>
   <path class="fil1" d="M39441 15574c2328,43 6260,575 8462,1224"/>
   <g>
    <path class="fil0" d="M47905 4277c5,-22 10,-45 14,-68 25,-9 47,-11 71,3 28,19 -10,10 29,21 93,27 102,10 185,-21 -12,-27 -25,-54 -37,-81 33,18 66,36 99,54 2,26 5,53 7,79 -21,13 -42,25 -64,38 16,18 99,31 121,25 17,-9 35,-18 52,-27 -2,-16 -5,-33 -7,-49 40,15 80,31 120,47 78,4 156,8 234,12 -22,-25 -45,-49 -68,-74 0,0 80,3 112,16 37,15 260,23 304,16 17,-3 34,-5 51,-8 -26,33 103,2 155,-11 131,-33 689,-199 777,-193 76,4 235,22 303,48 60,23 374,54 441,46 20,-2 41,-5 62,-7 594,10 1210,12 1801,42 77,6 151,12 228,8 54,-6 108,-12 162,-18 36,-14 71,-27 107,-41 34,9 68,18 102,27 -15,29 -30,58 -45,86 9,22 66,11 84,6 16,-9 32,-18 48,-26 -1,16 -3,33 -4,49 23,50 -6,79 71,55 86,-27 32,-57 -10,-118 24,-25 47,-49 71,-74 46,0 92,0 138,0 65,-21 181,-15 248,-10 59,5 119,10 178,14 49,-9 97,-19 145,-29 53,8 105,16 157,24 31,21 108,50 108,50 0,0 48,-56 91,-52 47,4 94,-22 149,-17 56,5 71,-37 124,-49 38,-9 88,-18 121,-38 30,-19 63,-146 66,-182 1,-16 3,-33 5,-49 -11,129 100,-1162 193,-1307 32,-51 64,-85 95,-130 38,-55 136,-372 159,-452 32,-106 79,-141 82,-260 8,-97 35,-174 82,-258 4,3 -37,-54 31,-48 41,4 154,-25 69,-43 -51,-10 -99,-8 -149,5 0,0 -90,-18 -88,-46 2,-19 7,-14 3,-30 -7,-21 17,-20 -7,-22 -29,-3 -43,-1 -61,24 -25,36 -43,28 -67,-6 -10,-14 -21,-28 -31,-41 -4,-24 -13,-30 -34,-14 -23,22 -74,64 -74,64 0,0 -81,-29 -120,-11 -34,16 -12,-16 -39,-44 -32,-32 -37,-16 -70,-6 -32,10 -70,13 -98,32 -37,22 -187,23 -180,23 -101,-2 -91,-23 -198,13 -44,15 -87,61 -119,1 -24,-41 -58,-55 -105,-49 -55,-4 -111,-9 -166,-13 -56,-4 30,80 40,93 -45,-4 -110,-2 -146,-33 -26,-22 -130,-10 -130,-10 -34,-6 -68,-11 -102,-16 0,0 -61,37 -88,42 -38,8 -115,21 -115,21 119,-11 -953,99 -1011,73 -10,-4 -20,-7 -30,-11 -119,-2 -237,-4 -356,-5 -94,4 -187,7 -281,11 -178,2 -356,-2 -534,-5 18,-15 36,-31 53,-46 -107,11 -244,34 -349,27 -57,-4 -150,-12 -204,-4 -61,12 -156,-32 -227,-3 -66,27 -565,65 -654,60 -652,-11 -1314,-6 -1967,-2 32,-18 64,-37 96,-55 0,0 -75,5 -112,3 -45,-2 -134,-15 -134,-15 -27,2 -54,3 -82,5 16,1 -123,-5 -93,6 35,14 110,35 110,35 0,0 -164,12 -244,8 -125,-6 -264,29 -389,24 -285,14 -420,72 -879,63 -113,-3 -229,-1 -342,-6 -204,-2 -836,-17 -1035,28 -98,1 -195,2 -293,3 -73,-12 -146,-24 -219,-35 -112,-15 -223,-31 -335,-46 -36,15 -73,31 -109,47 0,0 -123,6 -185,5 -53,-1 -117,-11 -168,-3 -176,29 -535,63 -535,63 -25,-14 -50,-28 -75,-41 0,0 -243,28 -363,27 -132,-1 -341,40 -479,59 -280,32 -660,47 -924,101 -43,15 -222,-28 -290,-3 -87,33 -92,26 -182,36 0,0 -6,109 -40,119 -101,33 -237,55 -327,106 -56,31 -203,53 -244,87 -36,28 -243,122 -290,133 -115,32 -336,-36 -446,79 -98,99 -41,-4 -43,-1 -14,3 -28,7 -42,10 -39,-7 -77,-14 -116,-18 -26,-20 -53,-39 -81,-56 0,0 -66,16 -35,45 24,20 52,25 83,21 350,941 568,1608 800,2599 7,-37 32,-64 49,-8 8,35 15,77 58,72 18,-2 13,-21 48,-25 38,-4 92,-12 127,6 20,11 137,-98 194,-113 182,-48 284,-137 500,-145 103,-4 399,-50 399,-50 -48,40 -95,80 -141,121 0,0 222,-18 310,-45 57,-17 154,-44 214,-43 34,20 68,39 102,59 0,0 636,9 870,-99 79,-37 131,-70 212,-97 84,-23 158,-15 237,21 0,0 232,-16 347,-14 67,1 229,-37 229,-37 182,-17 365,-33 547,-48 0,0 161,23 238,25 416,11 832,23 1247,38 7,0 78,0 78,0 109,-8 195,-28 297,-65 33,1 66,2 99,3 145,-21 291,-42 437,-62 0,0 202,-49 238,10 43,69 53,48 137,65 80,16 259,30 259,30 95,-41 190,-83 286,-124 62,-22 234,-11 305,-7z"/>
   </g>
   <path class="fil1" d="M39364 2851c1135,-459 10913,-24 16196,479"/>
   <g>
    <path class="fil0" d="M44882 8612c-22,6 -44,13 -66,19 -20,-17 -31,-38 -31,-65 4,-34 14,4 4,-36 -20,-96 -39,-95 -106,-155 -18,24 -36,47 -54,71 0,-38 1,-76 2,-113 22,-14 45,-29 67,-43 21,13 42,26 63,40 8,-22 -19,-102 -34,-119 -16,-11 -32,-22 -48,-34 -14,10 -27,19 -41,29 -5,-43 -9,-85 -14,-128 -32,-71 -64,-142 -96,-213 -12,31 -24,62 -35,93 0,0 -33,-72 -36,-107 -3,-38 -95,-242 -120,-277 -10,-14 -20,-28 -29,-42 41,10 -43,-92 -77,-133 -84,-100 -468,-527 -500,-609 -26,-69 -74,-220 -77,-290 -2,-61 -96,-358 -127,-414 -10,-18 -20,-35 -29,-53 -207,-518 -423,-1126 -561,-1664 -17,-74 -31,-145 -57,-217 -21,-49 -41,-99 -61,-149 -23,-30 -46,-61 -68,-91 0,-35 0,-70 0,-104 32,7 63,13 95,20 19,-14 -6,-66 -15,-82 -12,-13 -25,-26 -37,-40 16,-3 32,-6 48,-9 43,-35 78,-14 35,-82 -47,-76 -63,-17 -112,38 -30,-17 -59,-33 -89,-50 -11,-45 -22,-89 -33,-134 -21,-35 -36,-91 -46,-129 -13,-67 -29,-122 -49,-186 -19,-62 -41,-123 -63,-184 -35,-52 -69,-105 -103,-158 -25,-77 -51,-153 -78,-229 -2,-62 -32,-190 -32,-190 -49,-30 -87,-65 -111,-118 -32,-79 -91,-147 -125,-231 -35,-86 -87,-98 -133,-170 -33,-51 -75,-121 -119,-162 -34,-31 -162,-17 -203,0 -15,6 -30,12 -45,19 108,-44 -1115,432 -1262,399 -57,-12 -115,-34 -168,-45 -67,-14 -395,47 -475,66 -106,23 -158,10 -264,59 -69,32 -260,68 -260,68 0,0 -37,38 -50,7 -71,-134 -496,-1620 -58,-13 7,32 23,48 48,68 0,0 16,74 -7,84 -17,7 -16,0 -28,11 -16,16 -25,-5 -16,16 11,27 19,40 51,46 47,8 46,34 30,74 -7,18 -13,37 -19,56 -21,19 -15,33 8,47 35,19 102,64 102,64 0,0 35,133 71,174 38,42 -6,23 -11,80 -6,63 13,64 44,109 31,42 59,98 97,133 53,54 149,268 144,257 53,119 46,151 134,259 33,40 101,72 61,130 -22,35 -27,74 -2,109 0,0 23,66 19,51 -4,-13 63,-14 85,-27 0,0 -36,-79 -52,-111 -8,-16 -33,-135 -33,-135 -6,1 26,119 26,118 4,42 8,83 11,125 0,0 52,63 65,92 18,42 53,128 53,128 109,329 312,810 390,1108 0,12 0,24 0,36 39,128 79,256 121,384 37,98 75,196 114,293 69,185 133,371 203,556 -21,-13 -43,-25 -64,-38 53,108 128,235 166,347 20,60 50,156 81,208 37,59 35,170 93,229 53,55 305,534 341,624 276,637 613,1292 941,1905 -32,-22 -65,-44 -97,-66 0,0 43,70 60,106 21,44 56,136 56,136 15,25 31,51 46,76 -7,-17 59,119 54,86 -6,-41 -26,-122 -26,-122 0,0 95,151 134,230 61,123 163,238 225,361 176,278 307,403 533,813 98,176 477,865 626,1004 41,66 83,131 124,197 20,56 40,112 61,168 34,85 68,171 102,256 29,18 58,35 86,52 0,0 58,84 84,128 22,38 41,90 70,122 103,113 291,359 291,359 -1,26 -1,52 -2,77 0,0 135,170 189,262 60,101 197,251 276,349 174,229 370,537 550,744 39,35 93,221 153,275 75,67 76,81 132,162 0,0 99,-46 127,-16 92,94 183,220 285,299 71,56 162,203 229,244 68,44 267,250 315,317 139,184 197,484 402,651 26,22 159,138 32,73 13,22 26,45 39,67 19,64 37,127 56,191 -6,41 -12,83 -18,124 -1,-2 45,95 64,51 14,-40 1,-85 -16,-123 836,-589 1417,-1047 2049,-1881 0,0 -191,-167 -134,-225 56,-57 18,-124 -16,-180 -24,-40 -59,-61 -90,-112 -43,-71 -112,-176 -131,-254 -10,-42 -223,-199 -274,-265 -152,-196 -339,-330 -475,-556 -66,-109 -280,-390 -280,-390 62,27 124,55 186,82 0,0 -137,-208 -215,-282 -55,-53 -111,-112 -153,-176 -1,-40 -2,-81 -3,-121 0,0 -304,-539 -512,-669 -68,-43 -120,-64 -181,-114 -59,-53 -84,-111 -89,-189 0,0 -116,-161 -165,-246 -27,-47 -130,-144 -130,-144 -91,-118 -181,-235 -271,-353 0,0 -47,-121 -76,-173 -155,-274 -308,-549 -458,-826 -64,-110 -147,-210 -246,-292 -17,-31 -34,-62 -51,-93 -95,-123 -189,-246 -283,-370 0,0 -147,-159 -114,-221 39,-74 15,-73 -13,-156 -26,-81 -103,-249 -103,-248 -83,-65 -166,-131 -249,-197 -50,-45 -122,-204 -153,-269z"/>
   </g>
   <path class="fil1" d="M48143 17298c-2401,-4095 -5769,-9019 -6482,-13818 -22,-150 -771,-1961 -772,-1964"/>
   <g>
    <path class="fil0" d="M48559 8075c22,4 45,9 67,13 9,18 10,32 -4,48 -19,18 -10,-7 -21,19 -28,64 -8,72 20,126 27,-7 54,-14 81,-22 -18,21 -36,43 -54,64 -26,1 -53,1 -79,2 -12,-15 -25,-30 -37,-45 -17,10 -32,65 -26,81 9,12 18,24 27,36 16,-1 33,-2 49,-2 -16,26 -31,53 -47,79 -4,53 -8,105 -13,158 25,-14 49,-28 74,-43 0,0 -4,55 -17,75 -14,23 -23,176 -16,205 3,12 5,24 8,35 -37,-18 9,101 11,105 26,72 198,497 195,534 -4,47 -24,164 -46,203 -21,37 -50,254 -42,298 2,14 5,28 7,42 -6,406 2,830 -14,1233 -4,54 -9,104 -3,158 7,38 15,75 22,113 15,25 29,50 44,75 -8,23 -16,47 -24,70 -29,-11 -58,-22 -87,-32 -21,5 -10,45 -4,58 9,11 18,23 28,34 -16,-1 -33,-2 -49,-3 -43,13 -79,-6 -53,49 30,62 64,21 118,-5 25,17 50,34 75,51 1,32 3,64 4,97 22,45 20,127 18,175 -3,42 -6,84 -8,126 11,34 23,69 34,103 -6,37 -12,75 -18,112 -19,20 -45,78 -45,78 0,0 58,35 56,65 -2,33 26,66 23,107 -2,41 40,50 54,89 11,29 23,64 44,88 21,22 151,45 185,47 16,1 33,2 49,3 323,25 1039,60 1314,131 49,21 89,45 135,66 79,37 361,89 459,108 102,20 153,54 264,55 72,1 264,55 264,55 0,0 51,-26 48,20 -2,38 34,101 47,47 7,-37 2,-69 -14,-103 0,0 14,-61 42,-60 16,1 15,5 30,2 20,-5 21,11 22,-5 1,-24 -5,-31 -28,-42 -36,-17 -32,-29 3,-45 13,-7 26,-14 40,-21 -1,0 41,-3 12,-23 -23,-15 -68,-50 -68,-50 0,0 25,-55 5,-82 -17,-23 18,-9 42,-27 30,-22 14,-25 3,-48 -12,-23 -16,-48 -36,-67 -21,-23 -31,-124 -31,-122 -2,-74 22,-57 -21,-134 -18,-31 -64,-59 -6,-80 32,-12 55,-34 45,-71 2,-37 5,-74 8,-111 2,-38 -80,19 -92,26 2,-33 -1,-74 28,-98 21,-17 6,-87 6,-87 4,-23 9,-46 13,-69 0,0 -38,-40 -45,-60 -9,-26 -25,-78 -25,-78 10,52 -116,-652 -98,-679 3,-7 7,-13 10,-20 -1,-79 -1,-158 -1,-238 -5,-63 -11,-125 -16,-188 -5,-118 -3,-238 -3,-356 15,12 31,25 46,37 -11,-66 -36,-169 -31,-234 3,-33 9,-105 2,-135 -10,-34 29,-105 1,-151 -24,-39 -68,-382 -64,-438 10,-434 2,-880 3,-1316 18,22 36,45 54,67 0,0 -5,-51 -3,-76 2,-30 15,-89 15,-89 -1,-18 -3,-37 -4,-55 -1,8 7,-84 -6,-63 -14,22 -36,73 -36,73 0,0 -11,-112 -6,-165 6,-82 -27,-182 -20,-264 -9,-160 -73,-191 -53,-601 6,-116 33,-615 -15,-725 0,-47 -1,-94 -2,-142 12,-35 25,-69 37,-104 17,-54 33,-108 49,-162 -15,-19 -30,-38 -45,-56 0,0 -5,-62 -2,-92 2,-25 13,-60 6,-84 -26,-89 -53,-277 -53,-276 14,-12 28,-24 43,-37 1,6 -21,-138 -18,-193 3,-50 -34,-204 -44,-263 -19,-101 -35,-485 -61,-541 -9,-18 37,-142 19,-180 -28,-57 -21,-58 -24,-120 0,0 -111,-18 -116,-34 -26,-72 -40,-168 -80,-231 -25,-41 -37,-155 -64,-186 -26,-32 -94,-201 -99,-243 -17,-101 84,-285 -1,-413 -76,-117 14,-38 11,-41 0,-14 0,-28 1,-42 17,-34 33,-68 50,-102 26,-17 53,-34 79,-51 0,0 9,-55 -29,-40 -27,12 -42,30 -49,58 -978,92 -1680,67 -2726,251 24,38 63,112 -3,127 -56,6 -79,23 -81,78 0,24 19,30 17,71 -1,42 0,108 -24,143 -15,22 81,138 91,193 25,133 111,233 103,390 -2,85 3,180 26,263 -37,-32 -75,-64 -112,-97 0,0 8,149 28,198 15,37 35,91 34,132 -21,19 -42,37 -63,56 0,0 -13,383 70,490 35,45 64,69 91,118 21,44 9,90 -26,122 0,0 11,120 7,178 -2,32 33,117 33,117 14,91 28,182 41,274 0,0 -25,80 -27,115 -14,197 -28,395 -42,592 -2,89 20,165 60,244 -2,22 -2,45 -4,68 19,101 38,202 56,303 0,0 47,140 -12,162 -66,24 -45,23 -67,90 -16,50 -33,175 -33,175 41,67 81,134 121,200 20,40 9,160 5,207z"/>
   </g>
   <path class="fil1" d="M50327 2749c-17,2732 -513,7397 -686,10620"/>
   <g>
    <path class="fil0" d="M38661 14442c-20,-10 -40,-21 -61,-31 0,0 -13,-17 7,-15 13,1 10,6 20,2 34,-11 4,-31 -10,-49 -25,-8 -50,-16 -75,-25 18,0 36,0 53,1 24,10 49,20 73,30 11,10 21,19 31,29 12,3 34,-6 28,-15 -8,-7 -15,-15 -23,-22 -15,-6 -30,-12 -46,-18 16,-2 31,-4 47,-6 6,-14 12,-27 18,-41 -23,-5 -46,-11 -70,-16 0,0 6,-14 18,-15 13,-1 28,-40 22,-52 -2,-5 -4,-9 -6,-13 31,18 -1,-33 -5,-39 -4,-7 -10,-17 -13,-24 -13,-32 -138,-239 -131,-255 8,-20 39,-60 59,-67 22,-8 68,-86 64,-107 -1,-7 -2,-13 -4,-20 -4,21 70,-381 125,-513 10,-23 19,-41 19,-67 -3,-19 -6,-38 -9,-57 -11,-16 -22,-32 -33,-48 10,-7 20,-15 30,-22 26,15 52,30 78,46 19,5 16,-13 10,-24 -7,-8 -15,-16 -22,-25 15,6 30,13 45,19 24,5 75,34 54,-3 -22,-39 -68,-33 -110,-40 -22,-16 -43,-33 -65,-49 2,-15 5,-29 7,-44 -14,-27 -7,-57 3,-84 8,-18 15,-35 22,-53 -6,-19 -13,-39 -19,-59 10,-15 20,-29 30,-44 16,-2 52,-19 52,-19 0,0 -50,-36 -44,-50 6,-14 -16,-39 -8,-57 7,-17 -31,-40 -39,-61 -8,-21 -14,-39 -29,-56 -19,-21 -135,-76 -166,-89 -15,-6 -30,-13 -45,-19 -364,-157 -868,-358 -1203,-541 -40,-26 -77,-54 -116,-81 -107,-73 -291,-159 -411,-220 -84,-43 -148,-87 -237,-123 -76,-30 -237,-123 -237,-123 0,0 -51,-6 -42,-28 9,-21 -18,-61 -36,-40 -20,20 -3,56 -3,56 -13,14 -29,21 -48,14 -12,-5 -16,-9 -28,-12 -11,-3 -18,-12 -21,-5 -6,15 8,23 19,30 29,20 28,26 -9,21 -13,-1 -27,-3 -40,-4 4,2 -40,-14 -14,7 19,16 56,49 56,49 0,0 -31,18 -16,38 12,17 -25,-2 -43,-2 -31,-1 -16,7 -9,22 9,18 9,29 25,45 14,16 12,70 12,70 -9,39 -29,18 2,71 12,22 52,51 -5,40 -15,-3 -53,-10 -51,16 -7,17 -14,34 -21,51 -7,17 79,20 88,21 -9,20 -11,35 -38,36 -21,1 -16,39 -16,39 -7,9 -14,18 -21,27 0,0 29,28 35,44 5,15 14,45 14,45 0,-2 28,342 15,346 -4,2 -8,4 -12,5 -8,36 -16,72 -24,108 -2,30 -3,60 -5,90 -7,54 -21,107 -33,160 -13,-11 -26,-22 -40,-32 3,27 16,92 7,115 -5,13 -18,46 -15,60 5,15 -36,38 -15,66 17,22 30,189 20,214 -12,32 -21,104 -30,139 59,-60 23,121 19,143 -15,-14 -31,-28 -46,-42 0,0 1,17 -2,24 -4,8 -20,22 -20,22 0,7 0,13 0,20 0,0 -12,26 1,24 12,-2 38,-11 38,-11 0,0 1,44 -7,60 -10,22 5,85 -7,110 -3,31 88,6 -28,290 -28,66 -128,306 -106,381 -8,26 -16,52 -25,79 -18,14 -36,29 -54,43 -26,24 -51,48 -77,71 10,17 20,33 30,50 0,0 -8,37 -16,53 -7,14 -24,29 -22,46 1,12 -4,103 -3,103 1,1 1,66 1,65 -15,0 -30,0 -45,0 0,-6 -5,79 -14,99 -6,13 -2,120 -2,143 0,46 -42,255 -33,277 4,11 -57,50 -47,74 16,37 10,28 3,63 0,0 97,50 100,63 13,45 10,92 35,133 14,24 11,83 28,104 7,9 37,75 37,82 2,23 9,53 5,76 -7,46 -138,123 -87,206 1,1 27,42 13,37 0,0 -1,0 -1,0 -9,-9 -30,-25 -30,-25 -1,3 -3,6 -4,9 -3,6 -6,12 -9,18 -25,21 -51,39 -80,55 -27,-1 -59,-4 -86,-1 -42,69 -79,474 -24,181 42,-116 29,-96 101,-161 559,188 1140,493 1768,701 256,104 511,204 771,295 -18,-34 -29,-81 30,-63 33,13 73,29 92,-9 7,-15 -11,-21 2,-49 7,-14 31,-66 44,-70 5,-2 7,-3 13,-5 18,-3 -51,-89 -50,-122 0,-63 -61,-150 -27,-221 19,-44 27,-87 23,-135 28,31 57,61 85,92 15,-34 18,-71 9,-107 -7,-23 -15,-52 -8,-77 22,-1 45,-2 67,-3 38,-82 65,-185 20,-269 -23,-34 -46,-58 -63,-95 -22,-47 45,-50 45,-50 0,0 4,-19 5,-27 1,-11 18,-65 23,-77 9,-20 -6,-82 -6,-82 6,-59 12,-117 18,-176 0,0 39,-37 48,-55 49,-104 99,-207 148,-310 19,-50 6,-102 -15,-150 5,-10 9,-22 14,-33 -2,-56 -5,-112 -8,-167 0,0 -24,-82 32,-69 54,13 35,15 72,-13 13,-10 49,-61 49,-61 -30,-43 -60,-85 -92,-126 -14,-21 3,-57 12,-77z"/>
   </g>
   <path class="fil1" d="M36142 16335c1,-16 1188,-2470 1277,-2699 225,-582 477,-1175 723,-1749"/>
   <g>
    <path class="fil0" d="M39394 15865c22,7 43,13 65,20 0,0 15,20 -7,28 -18,6 -10,-6 -22,7 -33,34 -9,47 12,78 27,1 54,1 80,2 -19,9 -38,19 -57,28 -26,-5 -52,-9 -78,-13 -11,-11 -23,-22 -34,-33 -16,2 -35,32 -30,43 8,9 16,18 25,26 16,2 32,5 49,7 -17,13 -34,26 -50,39 -7,31 -14,61 -21,92 25,-4 50,-8 75,-12 0,0 -7,32 -20,42 -15,11 -31,100 -26,119 2,7 4,15 6,22 -35,-17 3,59 6,64 20,41 175,328 172,344 -5,28 -32,95 -52,113 -22,19 -58,143 -51,170 2,9 4,17 6,26 -12,242 -16,502 -34,738 -4,33 -10,63 -4,96 7,24 14,47 21,71 15,16 29,33 44,49 -8,14 -16,28 -24,42 -29,-9 -58,-18 -87,-26 -20,2 -11,26 -4,36 9,8 18,15 28,23 -16,-2 -32,-4 -49,-5 -32,4 -80,-11 -52,27 31,42 71,15 117,5 25,12 50,24 75,36 2,20 3,40 4,60 22,30 21,75 19,110 -2,26 -5,52 -7,78 12,22 23,45 35,67 -6,23 -11,47 -17,70 -16,11 -44,48 -44,48 0,0 58,24 56,44 -2,21 27,42 25,69 -2,26 41,34 56,59 13,21 25,43 45,58 22,15 154,32 186,34 16,1 33,2 49,3 390,28 947,48 1315,111 47,13 90,29 136,42 116,34 335,55 461,71 95,12 167,33 265,36 81,2 265,35 265,35 0,0 50,-13 49,12 -1,24 38,54 48,26 12,-27 -17,-56 -17,-56 0,0 12,-33 40,-31 13,1 18,3 30,2 12,-1 21,5 22,-2 1,-17 -15,-19 -29,-23 -34,-9 -35,-16 1,-24 13,-3 26,-7 39,-10 -4,0 42,0 11,-12 -23,-9 -69,-29 -69,-29 0,0 23,-29 3,-43 -17,-12 24,-7 42,-13 30,-10 13,-13 2,-25 -14,-14 -18,-26 -38,-36 -19,-11 -33,-65 -33,-65 -4,-43 22,-27 -24,-71 -18,-17 -65,-34 -7,-42 18,-3 52,-7 44,-33 2,-19 3,-39 5,-58 2,-19 -81,6 -91,8 2,-23 0,-39 26,-49 20,-7 5,-44 5,-44 4,-12 8,-23 12,-34 0,0 -36,-20 -46,-34 -9,-13 -26,-42 -26,-42 1,3 -119,-345 -104,-355 3,-3 7,-6 10,-9 -1,-40 -2,-80 -2,-120 -5,-32 -10,-64 -15,-97 -5,-59 -2,-120 -1,-180 15,8 30,16 46,25 -9,-29 -34,-94 -29,-121 3,-15 9,-54 3,-68 -8,-15 29,-50 3,-76 -22,-22 -62,-199 -56,-230 19,-218 27,-443 44,-663 17,15 34,30 51,45 0,0 -2,-27 1,-39 4,-14 19,-42 19,-42 -1,-10 -1,-19 -2,-29 0,1 10,-41 -3,-33 -13,8 -38,30 -38,30 0,0 -5,-60 1,-85 9,-35 -15,-104 -6,-139 0,-29 -85,-6 -15,-321 15,-67 75,-315 40,-383 4,-25 7,-50 11,-75 15,-15 30,-30 45,-46 21,-24 42,-49 63,-73 -13,-14 -26,-28 -38,-42 0,0 2,-35 7,-50 4,-13 18,-29 14,-44 -14,-49 -22,-166 -22,-164 15,-3 30,-5 45,-8 0,6 -3,-85 5,-110 5,-15 -8,-132 -10,-158 -4,-54 26,-300 17,-322 -5,-12 57,-71 46,-97 -18,-42 -11,-34 -4,-77 0,0 -101,-43 -104,-57 -14,-53 -10,-113 -36,-162 -15,-29 -8,-107 -26,-132 -17,-26 -49,-151 -45,-182 4,-52 137,-154 90,-260 -45,-107 27,-12 20,-22 3,-9 7,-18 11,-27 24,-16 48,-32 72,-47 29,-1 58,-2 87,-4 0,0 22,-32 -17,-37 -25,-2 -43,2 -60,20 -937,-300 -1599,-580 -2609,-805 12,41 27,107 -38,96 -44,-12 -78,-16 -97,31 -7,19 11,26 -2,59 -12,32 -27,80 -58,98 -21,12 44,123 41,169 -6,96 53,199 15,305 -21,61 -31,121 -26,186 -29,-33 -60,-66 -89,-99 -16,45 -20,95 -9,142 8,29 16,67 9,97 -23,6 -46,13 -70,19 -35,102 -64,240 -11,339 26,38 51,60 70,100 25,52 -43,71 -43,71 0,0 -5,79 -16,114 -7,21 17,82 17,82 2,60 4,120 6,181 0,0 -33,44 -39,64 -35,117 -70,235 -103,353 -12,56 7,113 36,162 -4,13 -7,27 -10,40 9,65 19,129 29,194 0,0 35,94 -25,94 -60,1 -40,-4 -72,40 -16,22 -45,98 -45,98 35,48 70,96 105,144 16,27 -1,94 -8,124z"/>
   </g>
   <path class="fil1" d="M41836 13077c-762,1878 -1363,4007 -1449,6047"/>
   <g>
    <path class="fil0" d="M58864 3527c2,-23 4,-45 5,-68 0,0 14,-19 24,1 8,15 -2,12 10,19 34,26 42,-3 62,-29 -4,-26 -8,-53 -12,-79 11,17 22,33 33,50 1,26 2,53 2,79 -7,13 -14,27 -22,40 5,15 32,28 41,20 6,-10 12,-20 18,-29 -1,-16 -2,-33 -2,-49 14,14 27,27 41,41 27,0 54,1 81,1 -8,-23 -16,-47 -24,-70 0,0 28,0 39,11 11,11 72,8 88,5 4,-1 11,-3 14,-5 5,-4 9,-7 14,-11 -6,37 38,-15 42,-19 23,-26 197,-236 211,-236 22,0 70,14 85,30 15,18 106,32 124,20 6,-3 12,-7 17,-10 -22,3 380,-74 519,-69 24,1 43,3 67,-6 16,-9 32,-19 48,-28 11,-16 22,-32 32,-48 10,7 20,14 30,21 -5,30 -10,59 -15,89 2,19 17,10 25,1 5,-10 10,-19 15,-29 -1,16 -2,33 -2,49 3,23 -6,82 20,50 28,-34 8,-76 0,-118 8,-26 15,-52 23,-78 14,-3 28,-6 41,-9 21,-22 45,-26 75,-26 18,1 36,2 54,3 15,-12 30,-25 46,-38 16,5 31,9 47,14 6,14 31,43 31,43 0,0 16,-59 31,-57 14,1 29,-28 47,-26 16,1 26,-43 42,-56 16,-14 30,-26 41,-46 13,-26 30,-151 33,-185 2,-16 3,-32 5,-49 43,-396 77,-936 153,-1310 14,-47 30,-89 45,-135 39,-121 69,-327 94,-457 18,-94 44,-164 52,-262 6,-79 54,-262 54,-262 0,0 -12,-51 16,-47 27,3 65,-33 34,-45 -24,-9 -45,-2 -66,12 -18,-6 -35,-22 -35,-42 1,-13 4,-17 3,-30 -1,-14 8,-21 -2,-22 -18,-2 -22,11 -28,27 -12,34 -19,34 -28,-3 -4,-13 -7,-26 -11,-39 -1,3 1,-42 -13,-12 -11,23 -35,67 -35,67 0,0 -32,-24 -49,-5 -14,17 -7,-22 -14,-42 -11,-30 -15,-14 -29,-3 -16,14 -29,17 -41,37 -12,18 -73,33 -73,33 -46,4 -32,-22 -78,24 -19,19 -36,66 -46,8 -4,-19 -10,-52 -37,-44 -21,-1 -42,-2 -63,-3 -21,-1 9,81 12,90 -24,-2 -42,2 -53,-25 -9,-20 -48,-3 -48,-3 -12,-3 -25,-7 -37,-10 0,0 -19,37 -33,47 -14,10 -42,28 -42,28 4,-2 -342,143 -349,135 -3,-3 -7,-6 -10,-9 -39,5 -78,11 -117,16 -30,9 -60,19 -90,28 -55,13 -112,19 -167,27 5,-16 11,-32 16,-49 -24,13 -81,48 -107,48 -15,0 -50,0 -61,8 -12,11 -49,-19 -67,10 -14,23 -162,97 -188,97 -52,0 -166,31 -223,40 -107,16 -319,56 -319,56 9,-20 18,-39 27,-59 0,0 -21,8 -31,8 -12,0 -37,-9 -36,-9 -8,3 -15,5 -22,8 1,0 -34,-1 -26,10 8,11 30,31 30,31 0,0 -45,18 -67,17 -27,-1 -81,38 -108,37 -27,9 22,83 -248,87 -57,0 -260,0 -304,51 -20,2 -40,5 -60,7 -14,-11 -29,-22 -43,-33 -22,-14 -45,-29 -68,-43 -9,16 -17,32 -26,47 0,0 -27,7 -40,6 -11,-1 -26,-10 -36,-2 -33,24 -127,64 -124,62 -5,-14 -10,-28 -15,-42 5,-2 -68,25 -87,24 -12,-1 -103,44 -122,52 -41,19 -241,58 -257,74 -8,8 -69,-34 -87,-15 -30,29 -23,20 -60,27 0,0 -9,108 -21,116 -39,29 -87,45 -119,84 -19,23 -83,42 -97,66 -15,23 -105,95 -130,102 -36,12 -160,-75 -229,5 -71,80 -15,-25 -24,-11 -8,0 -16,0 -24,0 -20,-17 -40,-33 -60,-50 -10,-26 -20,-53 -31,-79 -24,-4 -28,9 -24,30 6,21 14,39 35,49 51,915 54,1789 129,2723 0,0 59,-78 62,1 1,26 0,79 36,80 14,0 10,-19 34,-18 23,1 51,-1 67,21 11,16 62,-82 92,-95 54,-23 111,-115 182,-111 43,0 84,-9 121,-32 -16,38 -32,76 -48,115 35,0 63,-11 90,-33 16,-15 37,-34 60,-37 7,20 16,41 24,61 85,2 170,-12 224,-84 20,-34 32,-65 57,-95 31,-38 55,23 55,23 0,0 56,-15 81,-14 23,2 55,-37 55,-37 42,-17 84,-34 127,-51 0,0 37,22 52,22 91,6 182,11 274,16 48,-2 87,-37 116,-72 10,1 22,0 32,1 48,-24 96,-48 145,-72 0,0 67,-55 78,3 10,56 1,39 43,62 18,10 85,22 85,22 33,-44 65,-89 97,-133 19,-22 75,-19 102,-19z"/>
   </g>
   <path class="fil1" d="M56357 1943c951,0 1824,125 2890,125 631,0 1356,1 1983,75"/>
   <g>
    <path class="fil0" d="M50458 8409c4,-22 8,-45 13,-67 14,-9 27,-10 39,4 14,19 -6,10 15,21 52,29 61,7 104,-20 -5,-27 -10,-54 -15,-81 17,18 34,36 51,54 -1,27 -1,53 -2,79 -13,12 -25,25 -38,37 7,17 51,32 65,26 10,-9 21,-18 31,-27 0,-16 0,-33 0,-49 21,15 42,31 63,47 42,4 85,9 128,13 -11,-25 -21,-49 -32,-74 0,0 45,5 60,17 18,14 141,24 165,17 10,-3 19,-5 29,-8 -19,37 83,-9 85,-10 55,-24 408,-191 435,-188 37,5 129,28 157,50 27,21 194,57 228,50 11,-2 22,-4 33,-6 293,19 620,31 908,74 37,8 70,17 109,14 27,-4 54,-8 81,-13 20,-12 39,-25 59,-37 14,10 29,20 43,30 -13,28 -25,55 -38,83 0,21 26,15 38,9 9,-8 18,-16 28,-24 -4,16 -8,32 -12,48 0,34 -21,78 22,56 47,-25 25,-68 20,-116 16,-23 32,-46 48,-69 21,2 43,3 64,5 34,-16 79,-9 114,0 0,0 8,2 11,3 30,8 58,13 88,20 27,6 58,10 85,15 28,-9 57,-17 85,-26 29,9 57,18 86,26 13,19 56,51 56,51 0,0 35,-54 59,-50 26,5 55,-20 89,-14 32,6 46,-35 79,-46 26,-9 56,-18 77,-36 21,-19 56,-147 62,-179 3,-16 6,-32 9,-48 67,-341 172,-995 278,-1290 24,-46 49,-84 73,-128 48,-86 119,-340 151,-445 30,-97 66,-150 81,-256 10,-73 82,-256 81,-256 0,0 -15,-53 24,-45 35,6 92,-24 47,-41 -30,-11 -62,-9 -92,3 0,0 -51,-20 -46,-47 3,-15 6,-15 5,-29 -1,-19 12,-20 -2,-22 -22,-4 -29,4 -39,23 -19,34 -29,30 -39,-7 -4,-14 -9,-28 -13,-41 -1,2 3,-42 -18,-14 -16,21 -51,62 -51,62 0,0 -44,-29 -68,-12 -21,15 -6,-20 -17,-44 -14,-32 -20,-16 -40,-7 -22,10 -42,12 -60,30 -22,19 -105,20 -105,20 -63,-4 -43,-27 -112,10 -28,15 -56,59 -66,-1 -5,-29 -15,-54 -49,-51 -28,-5 -56,-9 -84,-14 0,0 41,8 62,12 215,51 5,39 -65,40 -9,4 4,31 7,40 -7,-1 -13,-2 -20,-3 -12,-2 156,39 162,36 -21,-7 -37,-15 -47,-35 -12,-23 -80,-21 -80,-21 -20,-8 -41,-17 -61,-25 0,0 -43,31 -64,34 -25,5 -76,12 -76,12 48,-2 -618,24 -628,15 -5,-4 -11,-8 -16,-12 -71,-7 -141,-13 -212,-19 -56,0 -112,1 -168,1 -105,-3 -210,-13 -315,-20 12,-15 24,-29 36,-44 -57,7 -154,27 -208,19 -28,-4 -93,-14 -119,-8 -29,8 -91,-33 -132,-7 -33,21 -338,56 -385,51 -364,-20 -764,-19 -1130,-18 19,-18 39,-36 58,-54 0,0 -43,4 -64,3 -25,-2 -75,-16 -75,-16 -16,1 -31,3 -47,4 5,1 -71,-7 -53,6 18,14 60,36 60,36 0,0 -95,10 -139,6 -67,-6 -155,27 -222,21 -137,13 -94,77 -498,54 -97,-6 -492,-32 -583,15 -37,0 -74,1 -111,1 -27,-13 -53,-25 -80,-38 -41,-17 -81,-33 -122,-50 -15,15 -30,30 -45,45 0,0 -48,4 -70,1 -19,-2 -45,-13 -63,-6 -65,23 -210,49 -209,48 -8,-15 -16,-29 -24,-43 7,-1 -105,18 -141,14 -26,-3 -154,30 -189,37 -60,13 -345,25 -369,39 -12,7 -86,-44 -111,-29 -38,24 -34,17 -76,17 0,0 -23,106 -38,112 -48,22 -108,29 -150,63 -25,19 -97,26 -117,47 -19,19 -125,73 -151,74 -38,4 -122,-105 -194,-45 -75,61 -2,-28 -13,-16 -5,-2 -11,-4 -16,-6 -7,-19 -13,-39 -19,-59 4,-27 8,-53 14,-79 -13,-10 -20,14 -22,23 -5,17 -10,36 -1,52 -345,942 -599,1608 -707,2635 0,0 142,-38 130,39 -8,57 5,84 59,98 24,6 35,-10 75,0 40,10 105,23 134,53 19,20 145,-55 197,-57 118,-3 228,-76 362,-53 80,12 151,13 230,-1 -32,34 -64,69 -96,103 61,8 115,6 174,-12 39,-14 73,-25 115,-25 14,21 30,44 44,66 0,0 333,27 422,-46 40,-33 62,-61 105,-87 57,-34 102,31 102,31 0,0 101,-8 150,-3 27,3 100,-30 100,-30 77,-12 154,-25 231,-37 0,0 67,26 95,28 165,16 329,31 494,45 72,3 144,-21 205,-60 18,2 38,3 57,4 84,-19 169,-38 253,-57 0,0 118,-47 134,12 18,63 13,43 73,67 39,15 144,32 144,32 56,-41 112,-81 169,-122 33,-20 131,-9 170,-6z"/>
   </g>
   <path class="fil1" d="M46560 6398c1199,506 5028,432 7254,1052l917 165"/>
   <g>
    <path class="fil0" d="M25025 6897c-4,22 -9,45 -13,67 0,0 -19,17 -29,-3 -9,-17 5,-11 -10,-21 -37,-29 -48,-4 -77,21 2,27 5,54 7,80 -10,-16 -22,-32 -31,-48 -1,-2 -2,-4 -3,-5 2,-26 4,-53 6,-79 2,-3 8,-10 9,-13 2,-4 16,-20 19,-24 -2,-8 -7,-13 -14,-18 -5,-3 -22,-11 -28,-7 -7,9 -14,18 -21,27 -1,16 -2,33 -3,49 -12,-15 -25,-30 -37,-45 -27,-3 -54,-7 -81,-10 5,24 11,49 16,73 0,0 -28,-4 -38,-15 -10,-13 -88,-20 -104,-13 -6,3 -12,6 -19,9 13,-36 -50,10 -55,13 -32,23 -269,206 -284,204 -24,-3 -81,-23 -97,-42 -16,-20 -119,-46 -141,-36 -7,3 -14,5 -21,8 -174,5 -395,19 -562,12 -24,-3 -43,-7 -67,1 -16,8 -33,16 -49,24 -12,15 -23,30 -35,45 -9,-7 -18,-15 -27,-22 7,-29 14,-58 21,-88 0,-19 -15,-12 -23,-3 -5,9 -11,19 -16,28 2,-16 4,-32 6,-49 -1,-21 12,-82 -15,-51 -5,6 -10,15 -13,19 -6,7 -4,19 -3,27 1,23 5,48 7,71 -3,9 -22,64 -24,67 -1,2 -3,7 -4,9 -20,1 -39,2 -59,4 -28,21 -69,21 -103,18 -23,-3 -46,-5 -69,-8 -19,11 -38,22 -57,34 -18,-6 -37,-12 -55,-17 -7,-15 -33,-45 -33,-45 0,0 -20,58 -35,56 -15,-2 -31,26 -50,24 -16,-2 -27,42 -42,55 -16,14 -29,25 -39,45 -9,19 -10,49 -16,67 -9,23 -20,90 -24,117 -2,16 -4,32 -6,49 -48,370 -111,963 -197,1305 -17,46 -36,89 -53,133 -42,113 -80,330 -105,455 -19,93 -46,165 -57,261 -4,33 -30,192 -44,217 -7,13 -20,43 -20,43 0,0 24,53 -26,46 -20,-3 -36,0 -56,1 -32,1 -74,-4 -106,-7 -54,-5 -116,-25 -169,-37 -88,-20 -173,-63 -257,-94 -110,-41 -211,-119 -311,-175 -212,-191 -3581,-3366 -4,6 42,48 244,139 311,177 74,42 177,68 257,98 52,20 115,31 169,47 28,8 58,15 87,21 6,1 12,2 17,4 22,5 67,13 90,5 4,-1 17,-10 17,-10 0,0 35,16 31,43 -2,13 -4,17 -4,30 1,14 -8,20 1,22 18,2 23,-11 29,-26 13,-34 21,-32 29,4 4,13 7,27 11,40 1,-3 -2,42 15,13 9,-16 32,-47 38,-60 1,-2 2,-5 2,-5 0,0 21,24 35,4 12,-17 4,26 8,42 7,30 10,13 21,3 13,-14 24,-17 35,-37 11,-19 62,-31 62,-31 42,-3 25,23 71,-21 18,-18 37,-64 44,-6 2,19 7,54 35,45 21,2 42,5 63,7 22,3 -5,-81 -8,-91 24,3 44,1 55,28 8,20 52,6 52,6 14,5 27,9 41,14 11,-16 24,-33 40,-44 0,0 0,0 1,-1 11,-9 34,-26 34,-26 -1,1 291,-127 300,-112 3,3 5,6 8,10 36,-2 72,-5 107,-7 29,-7 58,-13 87,-20 55,-7 112,-8 167,-10 -7,16 -14,31 -21,47 27,-10 87,-39 114,-36 15,2 52,6 65,-1 14,-9 50,25 73,-2 19,-23 191,-76 221,-72 73,9 467,-6 539,-16 47,-6 147,-2 147,-2 -15,18 -29,36 -43,55 0,0 31,-5 45,-3 17,2 51,15 51,15 11,-2 22,-3 33,-5 -2,0 49,6 37,-6 -11,-13 -40,-35 -40,-35 0,0 67,-11 98,-7 43,5 114,-27 157,-21 36,-5 11,-82 357,-54 72,6 355,33 420,-14 27,0 53,-1 80,-1 18,12 37,25 55,37 29,17 57,33 85,50 12,-15 24,-30 36,-45 0,0 35,-4 51,-2 14,2 31,13 45,6 43,-21 158,-51 154,-50 5,14 10,29 15,43 -6,1 80,-19 102,-16 15,2 116,-33 138,-41 42,-13 247,-36 265,-51 9,-8 59,39 77,23 29,-26 21,-18 54,-22 0,0 20,-107 31,-114 36,-26 76,-37 105,-73 17,-20 66,-35 80,-58 11,-17 82,-86 100,-90 22,-8 72,84 113,12 43,-73 0,26 6,12 3,1 5,1 8,2 2,17 4,34 4,52 -4,26 -9,52 -14,78 6,-1 9,-23 11,-28 4,-15 9,-33 7,-49 229,-904 413,-1742 515,-2674 0,-1 -77,65 -67,-14 4,-29 12,-78 -26,-85 -15,-3 -14,17 -40,12 -25,-5 -56,-8 -70,-32 -10,-17 -79,71 -113,80 -65,16 -135,98 -216,85 -48,-5 -98,-2 -142,16 22,-36 44,-72 66,-108 -38,-6 -77,3 -110,22 -22,14 -49,30 -76,30 -8,-21 -16,-43 -24,-64 -92,-15 -212,-7 -283,58 -28,32 -45,62 -77,88 -42,35 -68,-29 -68,-29 0,0 -71,10 -104,5 -29,-4 -72,31 -72,31 -55,13 -110,26 -165,38 0,0 -46,-26 -66,-28 -117,-15 -235,-31 -352,-46 -57,-3 -109,24 -153,59 -13,-2 -27,-3 -41,-4 -63,19 -125,37 -188,56 0,0 -89,47 -97,-12 -9,-60 -2,-41 -50,-66 -24,-13 -104,-32 -103,-32 -43,40 -87,81 -130,121 -25,20 -94,10 -125,6z"/>
   </g>
   <path class="fil1" d="M27579 8743c-665,-180 -5239,-683 -5248,-700"/>
  </g>
 </g>
</svg>
